<svg width="563pt" height="162pt" version="1.2" viewBox="0 0 563.03 161.68" xmlns="http://www.w3.org/2000/svg"><defs><clipPath id="c"><path d="m547 49h16v17h-16z"/></clipPath><clipPath id="b"><path d="m194 46h92v116h-92z"/></clipPath><clipPath id="a"><path d="m352 46h97v116h-97z"/></clipPath></defs><g clip-path="url(#c)"><path d="m556 54.3c-.266-.23-.719-.352-1.38-.352h-.809v2.79h.75c.406 0 .695-.0195.902-.0742.211-.0703.398-.156.531-.297.266-.266.387-.617.387-1.04 0-.457-.121-.793-.387-1.02zm-.105 5.88c-.301-.531-.551-.973-.797-1.3-.215-.316-.469-.617-.707-.848-.0859-.0898-.176-.16-.246-.195s-.176-.0703-.328-.0703v3.8h-1.42v-8.77h2.68c.5 0 .926.0664 1.27.207.355.125.66.301.883.531.242.23.41.496.527.797.113.297.16.633.16.953 0 .688-.203 1.27-.582 1.73-.387.461-.91.691-1.6.691.082.0352.195.121.293.246.113.125.207.246.344.406.102.176.215.352.332.531.16.191.266.387.391.562l1.3 2.12h-1.74zm4.78-5.58c-.352-.793-.805-1.48-1.36-2.08-.547-.586-1.2-1.04-1.98-1.4-.77-.316-1.56-.492-2.42-.492-.871 0-1.7.176-2.44.492-.754.355-1.41.812-1.99 1.4-.57.598-1 1.29-1.33 2.08-.336.793-.484 1.64-.484 2.57 0 .918.148 1.77.484 2.56.332.809.762 1.5 1.33 2.1.574.582 1.23 1.06 1.99 1.41.738.336 1.57.512 2.44.512.859 0 1.65-.176 2.42-.512.781-.352 1.44-.828 1.98-1.41.555-.602 1.01-1.29 1.36-2.1.305-.793.473-1.64.473-2.56 0-.934-.168-1.78-.473-2.57zm1.38 5.66c-.422.938-.977 1.79-1.68 2.49-.703.707-1.51 1.25-2.46 1.66-.965.391-1.96.602-3 .602-1.07 0-2.09-.211-3.01-.602-.957-.406-1.77-.953-2.47-1.66-.715-.703-1.27-1.55-1.66-2.49-.426-.949-.633-1.99-.633-3.09 0-1.11.207-2.11.633-3.09.395-.957.945-1.78 1.66-2.49.707-.707 1.52-1.25 2.47-1.66.918-.406 1.94-.602 3.01-.602 1.05 0 2.04.195 3 .602.949.406 1.76.953 2.46 1.66.707.707 1.26 1.53 1.68 2.49.414.973.625 1.98.625 3.09 0 1.1-.211 2.14-.625 3.09" fill="#4d4f56"/></g><g fill="#4d4f56"><path d="m76.1 29.6h-51.2v40.6h41.7v20.1h-41.7v68.5h-24.9v-150h79.1l-3.02 20.3"/><path d="m89.1 17.5c0-8.86 6.91-16 15.8-16 8.43 0 15.6 6.92 15.6 16 0 8.65-7.13 15.8-16 15.8-8.64 0-15.3-7.13-15.3-15.8"/><path d="m92.5 159v-108l24-4.33v112h-24"/><path d="m190 70.2c-2.39-.867-4.12-1.52-6.69-1.52-9.95 0-18.4 7.34-20.6 16.2v73.9h-23.8v-77.2c0-13.8-1.5-22.7-3.88-29.4l21.8-5.62c2.59 4.96 4.11 11.2 4.11 17.3 8.64-11.9 17.3-17.5 27.9-17.5 3.46 0 5.62.422 8.42 1.71l-7.34 22.1"/></g><g clip-path="url(#b)"><path d="m241 64.8c-13.4 0-20.7 10.6-20.7 28.3h40.4c0-17.7-7.79-28.3-19.7-28.3zm-21 45.8v1.71c0 15.1 5.62 31.1 27 31.1 10.1 0 19-3.67 27.2-10.8l9.29 14.5c-11.5 9.73-24.6 14.5-39.3 14.5-30.9 0-50.4-22.3-50.4-57.3 0-19.3 4.11-32 13.6-42.8 8.88-10.2 19.7-14.7 33.5-14.7 10.8 0 20.8 2.81 30.1 11.2 9.51 8.65 14.3 22 14.3 47.6v4.97h-65.3" fill="#4d4f56"/></g><path d="m353 21.4c-5.4-2.59-8.64-3.9-13.2-3.9-8.21 0-13.4 5.63-13.4 15.4v16.6h28.5l-6.06 16.4h-22.3v92.9h-23.6v-92.9h-10.1v-16.4h10.6s-.656-6.05-.656-16.2c0-22.7 13.8-33.3 33.3-33.3 9.3 0 17.1 1.94 24.6 6.26l-7.79 15.1" fill="#4d4f56"/><g clip-path="url(#a)"><path d="m378 103c0 31.8 8 41.1 22.3 41.1 14.1 0 21.8-11.5 21.8-38.9 0-30.9-8.65-40.2-22.5-40.2-15.1 0-21.6 11.4-21.6 38zm70.3 1.73c0 35.2-18.8 57.1-48.4 57.1-29.6 0-48.2-22.3-48.2-57.3 0-35 18.8-57.5 47.8-57.5 31.1 0 48.8 23.1 48.8 57.7" fill="#4d4f56"/></g><path d="m520 159c-3.88-6.28-21.6-37-23.8-40.9-4.1 8.23-19.7 34.8-23.8 40.9h-30l40.6-59.2-31.6-46.9 25.7-5.19c4.98 8.21 14.7 25.3 19.9 35.4 3.02-7.13 14-29 17.3-33.5h27.7l-32.2 49.7 40 59.7h-29.8" fill="#4d4f56"/></svg>
