<svg xmlns="http://www.w3.org/2000/svg" xmlns:xlink="http://www.w3.org/1999/xlink" viewBox="435 126 590 158">
<path class="cls-1" fill="#d64203" d="M996.05,168.9H974.24L951,209.38,927.88,168.9H905.22l34.19,52.23-38.6,58.32h21.82l27.48-46.78,27.06,46.78h23.28l-38.39-59.16Zm-466,110.55h19.3V168.9h-19.3Zm63-87.23-1.89-23.32H574.65V279.44h19.3v-57c0-17.19,12.59-36.29,26.43-36.29a34.69,34.69,0,0,1,9.65,1.26l3.57-18.88a47,47,0,0,0-10.91-1.26C609.26,167.25,599,175.64,593.11,192.22ZM436.69,279.44h19.93V215.88h47.2V200.15h-47.2v-49.3h54.54l2.31-15.94H436.69ZM539.51,127.82c-8,0-13.43,5.66-13.43,13.22,0,7.34,5.45,13,13.43,13,8.18,0,13.64-5.66,13.64-13C553.15,133.48,547.69,127.82,539.51,127.82Zm312.68,39.44c-31.47,0-49.51,22.83-49.51,57,0,35,17.83,57.69,49.3,57.69,31.26,0,49.3-23.7,49.3-57.9C901.28,189,883.66,167.25,852.19,167.25ZM852,266.44c-18.46,0-28.53-13.43-28.53-42.16,0-28.95,10.28-41.5,28.74-41.5,18.25,0,28.32,12.55,28.32,41.29C880.51,253,870.44,266.44,852,266.44Zm-78.17-105.2c0-10.7,4.2-18.56,16.36-18.56a47.28,47.28,0,0,1,19.3,4.2l6.08-14.05c-8.81-3.78-15.94-5.66-26.43-5.66-22.45,0-34.61,14.09-34.61,32.55v9.19H734.79v14.89h19.72v95.65h19.3V183.79h24.75l2.1-14.89H773.81Zm-92,6c-28.53,0-45.94,23.67-45.94,58.07,0,35,18,56.64,48.88,56.64,15.31,0,27.69-5.24,38.6-13.84l-8.39-11.54c-9.65,6.71-17.83,9.65-28.74,9.65-15.94,0-27.9-9.86-29.79-35.45h70.48c.21-2.52.42-6.08.42-9.86C727.28,187.15,711.55,167.25,681.76,167.25Zm26.43,49.26H656.38c1.47-24.54,11.12-33.95,25.8-33.95,17.41,0,26,11.08,26,32.69Zm310.1-41.21c0-1.86-1.28-2.8-3.94-2.8H1012v9.39h1.45v-3.83h1.24l2.24,3.83h1.73l-2.55-4.07A2.56,2.56,0,0,0,1018.3,175.31Zm-4.87,1.55v-3.14h1.14c1.45,0,2.24.38,2.24,1.59s-.79,1.55-2,1.55Zm1.42-7.84a8.27,8.27,0,0,0-8.25,8.36,8.11,8.11,0,0,0,8.25,8.22,8.29,8.29,0,1,0,0-16.57Zm0,15.33a6.8,6.8,0,0,1-6.87-7,6.91,6.91,0,0,1,6.87-7.08,6.83,6.83,0,0,1,6.94,7A6.9,6.9,0,0,1,1014.84,184.35Z"/>
</svg>
