<svg width="689pt" height="459pt" version="1.2" viewBox="0 0 688.76172 459.20734" xmlns="http://www.w3.org/2000/svg"><g transform="translate(-81.4 -51.9)" fill-rule="evenodd"><path d="m425 63.7c-3.35 5.36-3.92 11.4-2.01 17.5 1.43 6.31 5.07 11 10.4 14.3 2.2.957 4.49 2.01 6.69 2.58 1.15.191 2.01.191 3.16.383 10.2 1.62 20.2 5.54 30.4 11.2l.668.383c5.45 3.35 8.89 7.93 10.6 14.1 1.62 5.93.957 11.9-2.01 17.4-3.54 5.83-8.03 9.37-14.3 11.2-6.12 1.53-11.9.766-17.4-2.2v-.379c-11.1-6.31-22.9-7.65-35.3-4.69-12.2 3.35-21.5 10.6-27.9 21.8-6.5 11.4-8.03 23-4.68 35.4 3.34 12.4 10.6 21.8 21.7 28.3 10.9 6.31 22.5 7.94 34.9 4.59 12.2-3.54 21.7-10.8 28.2-21.9 3.25-5.64 7.93-9.18 13.9-10.6 6.31-1.72 12.2-.957 17.8 2.2 5.35 3.34 9.08 8.03 10.5 14.1 1.91 5.93 1.14 12-2.01 17.7-12.8 22-32.2 36.6-56.3 43.3-24.7 6.6-48.3 3.34-70.1-9.27-22.3-12.8-36.5-31.8-43.4-56.6-6.69-24.7-3.54-48.4 9.27-70.5 5.73-10 12.6-18.4 20.9-25.3.953-.766 2-1.62 2.77-2.39 1.82-1.53 3.16-3.34 4.49-5.45 2.96-5.55 3.82-11.3 2.2-17.5-1.72-6.5-5.35-11.1-10.8-14.2-5.74-3.44-11.3-3.92-17.6-2.3-2.96.766-5.73 2.11-8.12 3.92-.191.191-.766.383-1.05.766-13 10.6-23.9 23.8-32.8 39.2-19.1 33.4-23.9 68.7-14 106 9.65 37.2 31.4 65.5 64.8 84.8 33.2 19.2 68.1 23.9 105 14 37.2-10 65.4-31.7 84.3-65.1 19.4-33.3 23.7-68.8 13.9-106-10-37.2-31.5-65.3-64.4-84.7-15.8-9.09-31.7-14.7-48.2-17.3-.574-.383-1.15-.383-1.34-.383-3.15-.191-5.93 0-9.08.957-6.12 1.53-10.9 5.07-14 10.8" fill="#ee2e30"/><g fill="#211e1e"><path d="m108 402 6.31-10.6h11.7l-13 17.5h-10.7l-12.2-17.5h11.7zm15.3 57.7 10 1.43c-1.15 7.64-3.92 13.6-8.32 17.9-4.49 4.49-10 6.5-16.5 6.5-8.12 0-14.8-2.96-19.8-8.89-4.78-5.93-7.36-14.5-7.36-25.7 0-7.27 1.05-13.6 3.16-18.9 2.2-5.45 5.54-9.56 9.75-12.3 4.49-2.58 9.27-3.92 14.2-3.92 6.5 0 11.9 1.91 16 5.64 4.3 3.73 6.88 8.89 7.93 15.8l-9.94 1.53c-.953-4.49-2.58-8.03-4.88-10.2-2.39-2.29-5.35-3.34-8.7-3.34-4.97 0-9.27 2.01-12.4 6.12-3.06 4.11-4.78 10.6-4.78 19.3 0 8.99 1.72 15.5 4.68 19.6 3.06 4.11 7.17 6.12 12 6.12 4.02 0 7.36-1.34 9.94-4.11 2.77-2.58 4.49-6.88 4.97-12.4"/><path d="m167 485c-8.41-.188-15.1-3.15-20-8.89-5.26-5.93-7.84-14.5-7.84-25.3 0-11.4 2.58-20.1 7.84-26.2 5.16-6.31 11.8-9.27 20-9.37v9.37c-4.49.0937-8.22 1.72-11.5 5.16-3.16 3.35-4.88 8.03-5.16 13.8h16.6v9.56h-17.4c.383 7.17 2.39 13 5.73 16.9 3.16 3.63 6.98 5.54 11.7 5.73zm0-69.8h.191c7.93 0 14.6 3.05 19.6 9.18 5.26 5.93 7.84 14.5 7.84 25.6 0 .57-.191 1.72-.191 3.05h-27.4v-9.56h16.6c-.383-5.54-1.62-9.66-3.63-12.4-3.34-4.3-7.46-6.5-12.6-6.5h-.383zm16.6 46.7 10.6 1.53c-1.72 6.88-4.88 12.2-9.27 16-4.49 3.73-10.2 5.54-17.2 5.54h-.766v-9.27h.766c3.63 0 6.98-1.15 9.56-3.15 2.68-2.2 4.68-5.73 6.31-10.6"/><path d="m203 464 10.1-1.82c.574 4.68 2.1 8.03 4.68 10.4 2.58 2.39 6.31 3.54 10.9 3.54 4.68 0 8.03-1.15 10.2-3.15 2.39-2.11 3.54-4.68 3.54-7.46 0-2.58-1.15-4.49-2.96-5.93-1.53-1.15-5.07-2.49-10.6-3.92-7.36-2.1-12.6-3.92-15.4-5.45-2.96-1.43-4.97-3.73-6.5-6.31-1.43-2.77-2.2-5.73-2.2-9.08 0-2.96.57-5.74 1.91-8.23 1.05-2.58 2.77-4.59 4.97-6.31 1.43-1.34 3.73-2.39 6.31-3.34 2.77-.953 5.73-1.34 8.89-1.34 4.59 0 8.89.762 12.4 2.29 3.44 1.43 6.12 3.54 7.75 6.12 1.62 2.58 2.96 5.93 3.54 10.2l-10 1.53c-.383-3.35-1.62-6.02-3.82-8.03-2.29-1.91-5.26-2.77-9.08-2.77-4.88 0-8.22.859-10 2.58-2.01 1.62-2.96 3.73-2.96 5.93 0 1.53.383 2.77 1.15 3.92.859 1.34 2.2 2.2 3.82 3.16 1.15.383 4.11 1.34 9.08 2.77 7.07 2.29 12 3.92 15 5.25 2.77 1.44 4.97 3.35 6.69 5.93 1.62 2.58 2.39 5.93 2.39 9.85 0 3.73-.957 7.27-2.96 10.6-2.01 3.35-4.78 6.02-8.51 7.84-3.73 1.82-7.93 2.58-12.6 2.58-7.93 0-13.9-1.62-18-5.35-4.02-3.54-6.69-8.99-7.74-16.1"/><path d="m265 484v-92.7h10.2v52.7l24-27.1h13.4l-22.9 24.9 25.1 42.3h-12.6l-20-34.2-6.98 7.55v26.7z"/><path d="m338 409 7.46-17.5h13.3l-12.3 17.5zm-15.9 101-1.15-10.6c2.2.762 4.11.953 5.74.953 2.2 0 4.11-.383 5.35-1.15 1.34-.859 2.48-2.01 3.35-3.54.762-1.05 1.72-4.02 3.15-8.51.191-.57.574-1.53.957-2.77l-22.8-67.2h11l12.4 39.1c1.62 4.78 3.15 10 4.39 15.4 1.15-5.16 2.58-10.4 4.3-15.4l12.7-39.1h10.2l-22.9 68.3c-2.39 7.26-4.3 12.3-5.73 15.1-1.72 3.73-3.73 6.5-6.12 8.22-2.29 1.81-5.07 2.58-8.41 2.58-1.82 0-4.02-.379-6.41-1.34"/><path d="m412 484v-92.7h10.2v33.4c4.49-6.12 10.4-9.18 17.7-9.18 4.4 0 8.32.953 11.7 2.86 3.15 2.01 5.54 4.59 7.07 8.12 1.24 3.35 2 8.41 2 15.1v42.4h-10.2v-42.4c0-5.73-1.05-9.84-3.35-12.5-2-2.39-5.16-3.63-9.18-3.63-2.96 0-5.83.672-8.6 2.58-2.58 1.62-4.3 4.11-5.45 7.07-1.05 2.96-1.62 7.07-1.62 12.2v36.7z"/><path d="m473 451c0-12.4 2.96-21.5 9.08-27.5 5.16-4.97 11.5-7.45 18.8-7.45v9.37c-4.97 0-9.18 2.01-12.5 6.31-3.34 4.3-5.07 10.6-5.07 19.1 0 8.6 1.72 15.1 5.07 19.4 3.35 4.3 7.55 6.31 12.5 6.31v9.27c-8.32 0-15.1-2.96-20.4-8.89-5.16-5.93-7.55-14.7-7.55-25.9m27.9-35c8.41 0 15 3.05 20.3 8.98 5.16 6.12 7.93 14.3 7.93 24.9 0 8.7-1.34 15.4-3.54 20.5-2.39 4.78-5.73 8.7-10.1 11.3-4.49 2.87-9.27 4.11-14.5 4.11v-9.27c5.07 0 9.27-2 12.6-6.31 3.34-4.3 5.07-10.8 5.07-19.8 0-8.12-1.72-14.4-5.07-18.7-3.35-4.3-7.55-6.31-12.6-6.31z"/><path d="m537 464 10.2-1.82c.574 4.68 2.2 8.03 4.78 10.4 2.58 2.39 6.12 3.54 10.8 3.54 4.59 0 8.12-1.15 10.3-3.15 2.2-2.11 3.35-4.68 3.35-7.46 0-2.58-.957-4.49-2.96-5.93-1.43-1.15-4.97-2.49-10.3-3.92-7.46-2.1-12.6-3.92-15.6-5.45-2.77-1.43-5.07-3.73-6.5-6.31-1.53-2.77-2.2-5.73-2.2-9.08 0-2.96.574-5.74 1.82-8.23 1.34-2.58 2.96-4.59 4.97-6.31 1.53-1.34 3.73-2.39 6.5-3.34 2.58-.953 5.54-1.34 8.7-1.34 4.88 0 8.89.762 12.4 2.29 3.54 1.43 6.12 3.54 7.94 6.12 1.72 2.58 2.87 5.93 3.34 10.2l-9.75 1.53c-.574-3.35-1.91-6.02-4.11-8.03-2.01-1.91-5.16-2.77-9.08-2.77-4.59 0-7.93.859-10 2.58-2.01 1.62-2.96 3.73-2.96 5.93 0 1.53.383 2.77 1.34 3.92.766 1.34 2.01 2.2 3.92 3.16.859.383 3.82 1.34 8.89 2.77 7.17 2.29 12.2 3.92 15 5.25 2.96 1.44 5.16 3.35 6.6 5.93 1.72 2.58 2.68 5.93 2.68 9.85 0 3.73-1.15 7.27-3.16 10.6-1.91 3.35-4.88 6.02-8.6 7.84-3.63 1.82-7.93 2.58-12.5 2.58-7.84 0-13.8-1.62-17.8-5.35-4.11-3.54-6.69-8.99-8.03-16.1"/><path d="m621 474 1.34 9.84c-2.77.766-5.45 1.05-7.65 1.05-3.73 0-6.69-.668-8.7-2.01-2.01-1.34-3.54-2.96-4.3-5.07-.863-2.2-1.24-6.69-1.24-13.4v-38.5h-7.65v-8.89h7.65v-16.5l10.1-6.69v23.2h10.4v8.89h-10.4v39.1c0 3.15.191 5.26.57 6.12.383.957.957 1.72 1.72 2.3.859.574 2.01.957 3.63.957 1.15 0 2.68-.195 4.5-.383"/><path d="m631 417h10.1v67.2h-10.1zm0-25.5h10.1v13.1h-10.1z"/><path d="m657 484v-67.2h9.27v9.65c4.2-7.45 10.7-11 18.9-11 3.63 0 6.98.762 9.95 2.1 2.96 1.43 5.35 3.34 6.88 5.73 1.44 2.39 2.58 5.26 3.16 8.41.383 2.01.574 5.73.574 11v41.3h-10.2v-40.8c0-4.59-.379-8.13-1.14-10.4-.672-2.2-2.2-4.02-4.21-5.36-2.01-1.53-4.3-2.01-7.07-2.01-4.4 0-8.12 1.44-11.3 4.4-3.16 3.15-4.59 8.98-4.59 17.5v36.7z"/><path d="m744 484c-.289.0977-.578.0977-.863.0977-8.32 0-14.8-3.34-19.3-10-4.59-6.79-6.78-14.5-6.78-23.9 0-6.5.855-12.2 3.15-17.6 2.01-5.45 4.97-9.75 9.09-12.7 3.82-2.77 8.5-4.3 13.9-4.3.285 0 .574 0 .863.0937v9.27h-.0976c-4.68 0-8.51 2.01-11.7 6.12-3.15 4.11-4.88 10.2-4.88 18.3 0 8.89 1.72 15.2 4.88 19.3 3.06 3.92 6.98 5.93 11.8 5.93zm-25 5.45 10 1.53c.285 3.54 1.43 5.93 3.44 7.55 2.48 2.11 5.93 3.25 10.2 3.25.379 0 .762-.0937 1.24-.0937v9.37h-1.24c-7.08 0-13-1.72-17.2-5.26-4.5-3.73-6.7-9.08-6.5-16.3m25 12.2c4.2-.0937 7.45-1.05 9.65-3.16 2.58-2.01 4.49-4.97 5.45-8.7.285-2.2.668-7.27.668-14.5-4.4 5.54-9.66 8.51-15.8 8.7v-9.46h.0937c4.59 0 8.51-1.82 11.7-5.93 3.34-4.11 4.78-10.4 4.78-18.9 0-8.22-1.62-14.3-4.78-18.5-3.35-4.3-7.17-6.31-11.8-6.31v-9.27c6.59.191 12.2 3.34 16.7 9.65v-8.41h9.08v58c0 10.4-.957 17.7-2.77 22.2-1.91 4.3-4.88 7.84-9.08 10.2-3.82 2.39-8.41 3.54-14 3.73z"/></g></g></svg>
