<svg width="32" height="32" fill="none" xmlns="http://www.w3.org/2000/svg">
  <path fill-rule="evenodd" clip-rule="evenodd" d="M16 3.6a2.4 2.4 0 100 4.8 2.4 2.4 0 000-4.8zM10.4 6a5.6 5.6 0 112.936 4.927l-2.41 2.41c.183.335.331.691.442 1.063h9.264a5.6 5.6 0 112.704 6.527l-2.41 2.41a5.6 5.6 0 11-2.263-2.263l2.41-2.41a5.563 5.563 0 01-.441-1.064h-9.264a5.6 5.6 0 11-2.704-6.527l2.409-2.408A5.575 5.575 0 0110.4 6zm3.2 20a2.4 2.4 0 114.8 0 2.4 2.4 0 01-4.8 0zM6 13.6a2.4 2.4 0 100 4.8 2.4 2.4 0 000-4.8zM23.6 16a2.4 2.4 0 114.8 0 2.4 2.4 0 01-4.8 0z" fill="#000"/>
</svg>
