<svg width="616pt" height="624pt" version="1.1" viewBox="0 0 770.39564 779.82581" xmlns="http://www.w3.org/2000/svg" xmlns:xlink="http://www.w3.org/1999/xlink"><defs><linearGradient id="a"><stop stop-color="#007ffe" stop-opacity=".627" offset="0"/><stop stop-color="#3d9eff" stop-opacity=".627" offset=".804"/><stop stop-color="#a5d2ff" stop-opacity=".627" offset="1"/></linearGradient><linearGradient id="r" x1="544" x2="254" y1="214" y2="653" gradientTransform="translate(290)" gradientUnits="userSpaceOnUse"><stop stop-color="#fff" offset="0"/><stop stop-color="#fff" stop-opacity="0" offset="1"/></linearGradient><linearGradient id="q" x1="225" x2="518" y1="682" y2="295" gradientTransform="translate(290)" gradientUnits="userSpaceOnUse"><stop stop-color="#fff" stop-opacity=".629" offset="0"/><stop stop-color="#fff" stop-opacity="0" offset="1"/></linearGradient><linearGradient id="p" x1="332" x2="226" y1="354" y2="134" gradientTransform="translate(290)" gradientUnits="userSpaceOnUse"><stop stop-color="#2b2b9c" offset="0"/><stop stop-color="#5c5cb3" offset="1"/></linearGradient><linearGradient id="o" x1="442" x2="554" y1="597" y2="787" gradientTransform="translate(290)" gradientUnits="userSpaceOnUse"><stop stop-color="#2727e8" offset="0"/><stop stop-color="#5f5fee" offset="1"/></linearGradient><radialGradient id="b" cx="425" cy="433" r="165" gradientTransform="matrix(.546 .218 -.437 1.09 683 -137)" gradientUnits="userSpaceOnUse"><stop stop-color="#69b4ff" offset="0"/><stop stop-color="#b0d8ff" offset="1"/></radialGradient><radialGradient id="n" cx="825" cy="457" r="53.9" gradientTransform="matrix(1.44 .59 -.216 .529 -264 -273)" gradientUnits="userSpaceOnUse" xlink:href="#a"/><radialGradient id="m" cx="800" cy="520" r="57.9" gradientTransform="matrix(1.24 1.07 -.532 .613 86.4 -661)" gradientUnits="userSpaceOnUse" xlink:href="#a"/><radialGradient id="l" cx="793" cy="559" r="55.2" gradientTransform="matrix(1.01 1.51 -.402 .268 190 -808)" gradientUnits="userSpaceOnUse" xlink:href="#a"/><radialGradient id="k" cx="735" cy="566" r="39.2" gradientTransform="matrix(.748 2.22 -.425 .143 426 -1.14e3)" gradientUnits="userSpaceOnUse" xlink:href="#a"/><radialGradient id="j" cx="697" cy="592" r="27.3" gradientTransform="matrix(.949 4.09 -.994 .231 619 -2.4e3)" gradientUnits="userSpaceOnUse" xlink:href="#a"/><radialGradient id="i" cx="666" cy="614" r="23.9" gradientTransform="matrix(.334 4.02 -.995 .0828 1.05e3 -2.12e3)" gradientUnits="userSpaceOnUse" xlink:href="#a"/><radialGradient id="h" cx="637" cy="620" r="20.1" gradientTransform="matrix(1.26e-6 4.78 -.529 1.39e-7 965 -2.42e3)" gradientUnits="userSpaceOnUse" xlink:href="#a"/><radialGradient id="g" cx="597" cy="636" r="21" gradientTransform="matrix(-.492 4.37 -.63 -.071 1.29e3 -1.92e3)" gradientUnits="userSpaceOnUse" xlink:href="#a"/><radialGradient id="f" cx="560" cy="653" r="22.9" gradientTransform="matrix(-.524 2.98 -.574 -.101 1.23e3 -946)" gradientUnits="userSpaceOnUse" xlink:href="#a"/><radialGradient id="e" cx="834" cy="417" r="51.5" gradientTransform="matrix(1.54 .358 -.115 .496 -400 -104)" gradientUnits="userSpaceOnUse" xlink:href="#a"/><radialGradient id="d" cx="834" cy="379" r="48.5" gradientTransform="matrix(1.6 .137 -.0456 .532 -484 40.2)" gradientUnits="userSpaceOnUse" xlink:href="#a"/><radialGradient id="c" cx="822" cy="334" r="37.7" gradientTransform="matrix(1.39 6.57e-8 -1.4e-8 .295 -320 209)" gradientUnits="userSpaceOnUse" xlink:href="#a"/></defs><g transform="translate(-278 -96.4)" fill-rule="evenodd" stroke="#000" stroke-linecap="round" stroke-linejoin="round" stroke-width="11.2"><path d="m655 138c-88.5 1.73-176 39.7-238 103-65.4 65.3-103 157-102 250-.194 91.3 37 182 101 247 3.09 3.73 8.13 9.02 9.01 15.5s4.14 4.87 8.54 5.35c10.4 1.13 16.9 11.2 25.7 16.4 68.1 50.2 155 73.6 239 64.8 93.1-8.96 181-58 239-132 56.4-71.1 83-165 73.3-255-9.16-91.9-56.5-179-128-237-63.5-51.9-146-79.9-227-77.5z" opacity=".09"/><path d="m655 136c-87.4 1.8-173 38.4-235 99.8-64 62-103 149-106 239-4.05 87.4 25.8 176 82 243 8.44 10 17.4 19.6 26.9 28.7.622 5.84 2.23 11.8-.719 17.3 3.45-2.81 8.56-3.09 13.6-2.8 8.98 2.38 14.8 10.7 22.7 15.4 72 53.4 165 76.9 254 64.3 90.8-12 176-62.2 231-135 57.9-75.2 82.9-174 68.6-268-13.1-91.9-64.8-178-140-233-62-46.2-139-70.4-216-68.3z" opacity=".085"/><path d="m655 133c-87.5 1.73-174 38.4-236 99.6-67.8 65.4-108 158-108 253-1.38 91.3 34.3 183 97.4 249 3.71 4.68 9.51 8.48 12.4 13.5.452 6.63 1.88 15.5-5.73 18.6-6.65 4.84-13.5 9.4-20.3 13.9 11.2-5.54 21.6-12.8 32.7-18.3 6.65-1.53 12.8.823 17.3 5.77 69.5 56.1 161 83.8 250 75.7 93.4-7.45 182-54.9 241-127 56.6-68 85.8-157 81-246-3.92-84-39.2-166-97.2-227-60.9-64.7-147-105-236-110-9.48-.513-19-.668-28.6-.453z" opacity=".08"/><path d="m655 131c-85.7 1.8-170 36.6-232 95.2-68.5 63.4-110 154-114 247-4.23 90.5 27.5 182 87.2 250 7.28 8.39 14.9 16.4 23 24.1-.674 5.89 1.71 13.8-5.44 16.3-18 12.9-36.7 24.6-55.9 35.6 24.1-10.1 47.3-22.6 69.6-36.4 5.83-.745 11.3.367 15.2 5.02 68.7 55.7 159 83.9 247 77 95.1-6.34 186-53.9 247-128 59.2-70.6 88.9-164 81.6-256-6.51-94-52.3-184-124-246-65.8-56.9-152-87.7-239-85.2z" opacity=".075"/><path d="m655 129c-92.8 1.83-184 42.5-248 110-65.5 67.7-102 162-100 256 .977 94.8 41.4 188 110 254 4.24 5.1.832 12.4-4.96 14.7-25 17.9-51.5 33.6-78.7 48 34.1-10.3 65.9-28 96.6-46 7.59-1.86 12.2 6.95 18.3 10.2 69.9 54 160 80.1 248 71.9 93-7.7 182-54.6 242-126 58.6-69.1 88.9-161 84-251-4.16-88.9-42.9-176-106-238-63.1-63-151-101-240-103-6.66-.188-13.3-.255-20-.0855z" opacity=".07"/><path d="m655 127c-91.3 1.88-181 40.9-245 106-63.6 63.6-102 152-105 242-3.87 89.1 26.4 179 83.7 247 8.59 10.4 18 20.4 27.8 29.9 2.71 7.94-6.98 10.2-11.5 14.4-28.1 19.4-57.8 36.4-88.3 51.8 36.8-7.39 70.5-25.1 103-43.7 5.49-2.42 12.3-10.8 17.8-4.13 68.6 56.9 159 86.5 249 80.7 90.7-4.94 178-46.7 240-113 62-65.8 97.7-155 97.9-246 1.05-88.5-31.9-177-90.6-243-60.7-69.3-149-114-241-121-12.4-1-24.9-1.32-37.4-1.05z" opacity=".065"/><path d="m655 125c-92.3 1.88-183 41.4-247 107-67.3 67.6-106 163-105 258-.274 97.7 40.8 194 111 262 4.18 5.11-4.77 7.5-7.69 10.4-31.8 22.3-65.7 41.2-100 58.4 23.3-.896 45.2-10.5 66.4-19.6 20.8-9.1 40.3-20.9 60-31.9 8.36 4.87 15.9 12.5 24.3 17.9 71 50.9 162 74.2 249 63.9 93.3-10.1 182-59.4 240-133 57.4-70.6 86.3-163 79.9-254-5.76-94-49.9-185-120-247-65.5-59.4-153-93.4-242-92.7-2.76-.0244-5.52.0259-8.28.0937z" opacity=".06"/><path d="m655 123c-11.8.314-23.7 1.18-35.4 2.64-12.6 1.6-25.2 3.77-37.6 6.73-15.3 3.54-30.4 8.17-45.1 13.7-9.42 3.58-18.7 7.53-27.8 11.9-8.5 4.03-16.8 8.43-25 13.1-9.93 5.74-19.6 11.9-28.9 18.6-5.91 4.15-11.6 8.55-17.3 13-1.08.804-2.26 1.83-3.38 2.72-13.1 10.8-25.5 22.5-37 35-5.22 5.61-10.2 11.5-15 17.4-.794 1.09-1.81 2.28-2.69 3.41-6.25 7.93-12.2 16.1-17.8 24.5-5.78 8.64-11.2 17.6-16.2 26.7-3.57 6.53-7 13.2-10.2 19.9-5.09 10.8-9.68 21.8-13.7 33.1-2.28 6.45-4.45 12.9-6.35 19.5-3.55 11.9-6.36 23.9-8.7 36.1-1.89 10.1-3.37 20.3-4.41 30.5-1.58 15.2-2.14 30.6-1.84 45.9.301 14.8 1.52 29.5 3.58 44.2 1.39 9.8 3.2 19.5 5.36 29.2 2.31 10.3 5.09 20.5 8.28 30.5 3.12 9.74 6.63 19.3 10.5 28.8 3.77 9.21 7.99 18.2 12.5 27.1 3.94 7.6 8.08 15.1 12.5 22.4 4.74 7.8 9.71 15.5 15 22.9 4.6 6.51 9.47 12.8 14.5 19 .803 1.05 1.83 2.21 2.72 3.31 7.05 8.49 14.5 16.6 22.3 24.4 1.85 1.85 3.73 3.68 5.62 5.5-.196.5-.925.729-1.33 1.12-11.2 8.14-22.7 15.8-34.4 23.1-9.53 5.97-19.2 11.6-29 17.2-7.17 4.03-14.4 7.95-21.7 11.7-8.15 4.31-16.4 8.45-24.6 12.5l-3.47 1.69c3.68 1.22 7.64 1.09 11.5.841 9.43-.788 18.6-3.25 27.6-6.03 9.42-3.01 18.7-6.53 27.8-10.4 6.65-2.87 13.2-5.91 19.7-9.09 9.32-4.62 18.5-9.52 27.5-14.7 6.44-3.63 12.8-7.46 19.1-11.3 1.39.974 2.67 2.17 4.03 3.23 1.71 1.42 3.39 2.68 5.15 4.09 9.84 7.65 20 14.9 30.6 21.5 6.26 3.93 12.6 7.68 19.1 11.2 11.4 6.22 23.1 11.8 35 16.8 4.97 2.05 9.99 3.99 15 5.83 10.1 3.65 20.3 6.85 30.6 9.59 10.4 2.75 20.9 5.06 31.5 6.84 8.93 1.54 17.9 2.72 27 3.56 11.6 1.08 23.2 1.62 34.8 1.59 10.5-.02 21-.512 31.5-1.42 12.7-1.11 25.3-2.94 37.8-5.37 8.24-1.65 16.4-3.51 24.5-5.73 10.8-2.9 21.4-6.37 31.9-10.2 16.2-6.05 31.9-13.3 47.1-21.6 9.57-5.28 18.9-10.9 28-17.1 7.9-5.28 15.6-10.9 23-16.8 1.09-.804 2.28-1.83 3.41-2.72 7.09-5.75 14-11.8 20.6-18 6.38-6.05 12.6-12.3 18.5-18.8 5.67-6.16 11.1-12.5 16.3-19.1.795-1.11 1.81-2.32 2.69-3.47 8.25-10.5 15.9-21.5 22.9-32.9 2.98-4.87 5.89-9.78 8.65-14.8 6.15-11.1 11.8-22.5 16.7-34.2 6.2-14.5 11.4-29.3 15.7-44.5 3.38-12.1 6.15-24.4 8.29-36.7 1.92-11.2 3.38-22.5 4.25-33.8 1.18-15.3 1.46-30.6.765-45.9-.491-11.3-1.52-22.6-3.06-33.9-1.29-9.01-2.81-18-4.73-26.9-3.47-16.2-8.02-32.2-13.7-47.8-2.94-8.19-6.24-16.2-9.74-24.2-4.44-10-9.37-19.8-14.7-29.4-3.58-6.43-7.35-12.7-11.3-19-6.12-9.54-12.6-18.8-19.6-27.8-2.62-3.35-5.15-6.61-7.92-9.87-8.14-9.73-16.7-19.1-25.8-27.9-6.27-6.11-12.8-12-19.5-17.7-2.93-2.45-5.87-4.87-8.85-7.26-1.11-.785-2.32-1.79-3.47-2.66-10.9-8.39-22.2-16.2-34-23.3-9.03-5.45-18.3-10.6-27.7-15.2-14.2-6.96-28.8-13-43.7-18.1-8.14-2.76-16.4-5.22-24.7-7.37-7.81-2.06-15.7-3.78-23.6-5.3-7.5-1.39-15-2.63-22.6-3.52-13.5-1.68-27.1-2.58-40.7-2.74-4.45-.0311-8.91-.0712-13.4.0625z" opacity=".055"/><path d="m655 121c-91.8 1.94-182 40.6-247 105-68 66.6-108 160-110 256-2.38 96 34.6 192 101 261 3.57 3.79 7.23 7.49 11 11.1-35.2 25.5-73.4 46.6-112 65.7-3.58 4.82 4.99 5.19 8.19 5.19 25.5-1.15 49.3-11.8 72.2-22 18.6-8.61 36.4-18.6 53.8-29.2 70.3 58.8 164 89.2 255 83.1 94.9-5.39 186-50.5 249-122 62.1-69 96.3-162 93.7-255-1.79-96.6-43.5-191-113-258-66.5-64.5-158-102-251-102-3.58-.0495-7.17-.0191-10.8.076z" opacity=".05"/><path d="m655 118c-95.6 1.93-189 43.8-255 113-67.5 69.6-105 167-103 264 1.01 95.8 41.1 190 109 258 2.9 3.56-7.23 6.01-9.46 9.03-31.4 21.4-64.9 39.7-99.1 56.4-5.62 3.93.455 9.66 5.47 9.03 21.8.881 42.5-7.8 62.4-15.6 23.3-9.77 45.6-21.8 67.1-35 70.3 58.3 163 88.5 254 82.7 96.6-5.24 190-51.3 253-124 63-70.8 96.8-167 92.4-261-3.38-95.9-46.1-189-116-255-67.1-63.9-159-101-252-100-3.16-.0175-6.31.007-9.47.0937z" opacity=".045"/><path d="m655 116c-92.5 1.93-183 40.8-249 106-69.5 67.7-111 163-112 260-2.15 96.5 35.1 193 102 263 1.37 3.08 9.32 6.57 6.36 9.17-33.6 23.9-70.2 43.3-107 61.9-6.26 4.34-.596 12.7 5.88 12.3 21.2 1.5 41.6-6.83 61.1-14.2 24.2-9.84 47.2-22.2 69.5-35.7 71.9 59.1 167 89 259 81.8 97-6.47 190-54 253-128 63.1-72.6 95.8-170 89.7-266-5.21-98.2-51.6-193-126-258-67.1-59.8-157-93.5-246-92.6-2.38-.0268-4.75.0511-7.12.0937z" opacity=".04"/><path d="m654 114c-94.9 1.94-188 42.7-254 110-69.1 69.3-109 167-108 265-.519 96.4 38.2 192 105 261 6.33 3.72-2.67 5.96-5.43 8.76-31 21.1-64.3 38.6-97.6 55.6-7.62 4.54-2.85 16 5.31 16.1 20.6 2.34 40.5-5.73 59.6-12.6 25.1-9.95 49.2-22.7 72.4-36.6 71.3 58.1 165 87.8 257 81.6 95.2-5.64 187-50.3 251-121 64.4-70.3 100-166 97.6-261-1.49-98.6-44-196-115-264-67.7-65.6-161-104-256-104-3.64-.0482-7.27-.0193-10.9.0766z" opacity=".035"/><path d="m654 112c-93.9 1.95-186 41.6-253 108-69.4 68-111 164-112 261-2.64 96 33.3 192 98.2 263 2.4 3.3 7.5 6.73 8.4 9.81-32.7 22.8-67.7 41.4-103 59.3-8.8 4.81-5.14 18.9 4.51 19.9 19.2 3.14 38.1-3.98 55.9-10.1 27.2-9.84 53.1-24 77.8-38.2 72.8 58.7 168 88.2 262 80.6 95.2-6.81 187-52.7 250-124 63.3-70.4 98.3-165 95.9-260-1.53-97.1-42.5-193-112-261-66.1-66.1-158-106-251-108-7-.191-14-.256-21-.0876z" opacity=".03"/><path d="m654 110c-98 1.95-194 44.8-261 116-68.9 71.2-108 170-106 269 1 95.2 39.7 189 106 258-32 22.2-66.6 40.6-101 58.1-9.96 5.28-7.13 21.2 3.62 23.6 18.4 4.02 37-2.66 54.3-8.28 28.3-9.99 55.1-23.9 80.8-39.2 73.1 58.6 169 88 262 80.3 99.1-7.09 194-56.3 258-132 62-72.6 94.5-169 89.5-264-4.22-97-47.7-191-119-258-68.6-65.4-163-103-257-103-3.32-.0205-6.65-.001-9.97.0911z" opacity=".025"/><path d="m654 108c-95 1.96-188 42.1-256 109-70.1 68.7-112 165-114 264-2.71 98 34.3 196 101 268 6.54 3.79.656 6.19-3.24 8.74-29.4 19.5-60.5 35.9-92 51.7-10.6 5.43-9.44 22.5 1.63 26.7 16.8 5.69 34.8-.4 51.1-5.05 30.5-10.1 59.3-24.7 86.8-41 74.5 59.4 172 88.4 267 79.5 99.2-8.33 194-58.7 257-135 62-73.9 93.7-172 87.4-268-5.62-100-53.3-198-129-264-68.5-60.8-160-95-251-94.1-2.44-.0259-4.88.0476-7.31.0937z" opacity=".02"/></g><g transform="translate(-278 -96.4)"><g fill-rule="evenodd"><circle transform="matrix(.922 0 0 .929 327 66.5)" cx="365" cy="433" r="396" fill="#9195e1"/><path d="m352 658c-36.5-71.9-46.5-119-55-188 22-.637 28.3-13.1 182 20.2 41.4 21.3 113 33.5 127 33 7.84.46 75.5-3.94 86.9-11.5 11.5-5.13 92.4-18.1 122-21.3 18.4-2.74 26.1-6.56 44.7-6.75 65.6-31.1 141-20.5 171-13.6-.622 25.3-3.72 60.8-8.35 77.1-4.82 23-7.25 35.2-18.5 55.8-4.99 23.7-16.2 39.1-33.7 67.7-18.3 28.8-51.2 58.9-88.7 90.5-25.2 34.3-114 52.5-133 63.4-49.4 13.4-99 18.4-186-5.04-96.2-21.2-171-108-210-162z" fill="url(#o)"/><path d="m305 384c3.84-15.5 13.1-47.3 22.5-60 15.8-21.2 40.4-71.1 58.3-96 26.1-36.4 105-85 140-101 53.9-25.3 188-37 262-2.67 32 14.7 94 47 119 73.4 23.5 24.6 60.8 68.3 79.5 107 10.1 20.8 41.4 103 37.1 104-27.2 3.83-55.3 13.9-83.4 22.7-19.8 6.2-53.8 22.7-58.3 22.7-19.9 0-89.5-4.88-110-4-20.3.878-51.2.558-60.9 2.67-29.7 6.47-77.8-.595-106-17.3-53.4 11.2-73.8 19.5-158-8-70.6-23.2-133-6.15-142-4-11.3 2.84-3.35-30.5-1.32-38.7z" fill="url(#p)"/></g><path d="m299 424c-2.68 1.79-1.72 38.8.425 56.9 4.03 7.8-4.37 18.3.353 25.8 6.14 7.37 104 24.3 179-15.8 41.4 21.3 113 33.5 127 33 7.84.46 179-29.6 209-32.8 18.4-2.74 36.6-6.56 55.3-6.75 12.6-.462 67 11.7 81.5 17.7 46.1 18.9 63.2 11.2 71.8 14 2.03-6.7 5.56-17.8 3.57-30.9-.851-15.7 4.67-51.5-1.32-61.5-4.99-4.28 1.33-13.7-4.45-15-19.4 3.3-53.5 13.4-81.7 22.7-24.8 8.29-35.5 16.6-52.1 17.2-15.6 4.83-55.6 2.37-73.6 1.97-38.2-8.46-78.3-28.4-120-35.5-22.5-1.74-69.3 9.02-87.9 19.8-29.6-14.6-96.1-23.4-121-25.5-89.5-7.85-160 7.71-186 14.7z" fill="#b2b4ff" fill-opacity=".502" fill-rule="evenodd"/><circle transform="matrix(.922 0 0 .929 327 66.5)" cx="365" cy="433" r="396" fill="none" stroke="#26269a" stroke-linejoin="round" stroke-width="10.8"/></g><g transform="translate(-278 -96.4)"><path d="m297 802c20.6 7.63 113-23.9 218-112 68.5-8.44 165-23.1 261-74.5 33.9-18.2 92.2-55.1 116-138 17.8-63.2 3.49-124-1.33-141-8.48-29-26.8-45.8-61.2-61.2 84.4-89.9-3.91-94.6-30.6-82.5-8.12 3.68-62.9 11.6-95.8 94.4-21.1 53.4-31.2 112-61.2 178-20 44.1-53.2 96.4-112 165-7.43 8.7-58.1 61-118 105-34 24.9-74.6 47.5-114 66.6z" fill="#fff" fill-opacity=".961" fill-rule="evenodd" stroke="#fff" stroke-linecap="round" stroke-linejoin="round" stroke-width="12"/><g fill-rule="evenodd"><path d="m305 802c53.8-8.82 163-74 209-121 69.8-45.7 121-53.7 217-105 33.9-18.2 81.6-52.5 105-136 17.8-63.2 7.84-112-13.3-169 77.7-77.9 4.07-85.3-23.9-71.8-8.03 3.86-59 14.2-91.8 97.1-21.1 53.4-29.8 111-59.9 177-20 44.1-53.2 93.8-112 162-7.43 8.7-58.1 59.7-118 104-34 24.9-72.5 43.4-112 62.5z" fill="#50a8ff" stroke="#3094fe" stroke-linejoin="round" stroke-width="4"/><path d="m528 659c53.8-40.4 95.5-38.6 190-91.8 45.4-25.5 86-61.5 104-133 23.6-93.3-7.2-138-13.7-166 77.7-77.9 14.7-62.6-13.3-55.9-8.66 2.1-48.3 3.6-81.1 86.5-21.1 53.4-31.2 108-61.2 174-20 44.1-21.3 64.5-79.8 133-7.43 8.7-23.7 27.8-45.2 53.2z" fill="url(#b)"/><path d="m567 639c17.4-10.5 27.6-16 37.2-22.6 4.33 7.98 1.12 31.1-6.65 51.9-7.68 1.23-23.5 8.11-37.2 7.98 5.79-6.47 6.21-28.4 6.65-37.2z" fill="url(#f)"/></g><path d="m841 212c-17.3-12-73.5 2.88-102 47.9-34.9 54.3-46.4 127-65.2 177-15.2 40.7-42.6 98.5-73.2 141-7.19 10-58.4 64.9-61.2 70.5" fill="none" stroke="url(#r)" stroke-linecap="round" stroke-width="10"/><g fill-rule="evenodd"><path d="m747 494c10.8-14.5 13-20 21.3-31.9 12.3 0 50.6 26.6 89.1 71.8-12.1 17.3-25.4 42-54.5 54.5-15.8-48.6-44.3-81.6-55.9-94.4z" fill="url(#l)"/><path d="m791 345c.13-11.8-1.77-28.3-2.64-37.3 12.3 0 28.4-2.62 39.9-2.62 10.6 0 17.4 1.33 30.6 1.33 19.9 13.3 22.5 24.7 26.6 50.5-33.1-14-82.9-13.7-94.4-12z" fill="url(#d)"/><path d="m791 345c-1.2 12.1-3 23.9-1.33 35.9 12.3 0 65.3 10.6 101 27.9 2.57-18.6 1.21-37.8-5.32-51.9-33.1-14-82.9-13.7-94.4-12z" fill="url(#e)"/><path d="m783 425c1.46-17.2 2.32-27.9 6.65-43.9 12.3 0 65.3 10.6 101 27.9-.0868 16-.115 47.3-6.65 62.5-33.1-36.6-81.6-44.3-101-46.6z" fill="url(#n)"/><path d="m783 425c-5.19 14.8-6.99 25.3-14.6 37.2 12.3 0 50.6 26.6 89.1 71.8 13.2-14.6 21.2-47.1 26.6-62.5-33.1-36.6-81.6-44.3-101-46.6z" fill="url(#m)"/><path d="m747 494c-6.52 13.4-12.3 20-22.6 29.3 9.65 21.3 21.4 51.9 27.9 94.4 17.2-3.99 30.5-15.2 50.5-29.3-15.8-48.6-44.3-81.6-55.9-94.4z" fill="url(#k)"/><path d="m698 547c6.78-5.19 13-12 26.6-23.9 9.65 21.3 21.4 51.9 27.9 94.4-16 5.32-20.1 10-35.9 17.3-3.87-35.3-13.7-65.6-18.6-87.8z" fill="url(#j)"/><path d="m698 547c-10.5 8.11-16.3 18.6-29.3 25.3 4.33 7.98 9.4 33.3 7.98 77.1 18.5-6.65 29.1-11.2 39.9-14.6-3.87-35.3-13.7-65.6-18.6-87.8z" fill="url(#i)"/><path d="m638 594c8.11-6.52 18.3-10.6 30.6-21.3 4.33 7.98 9.4 33.3 7.98 77.1-13.4 1.33-23.5 12.1-39.9 10.6 3.13-27.8 2.22-49.7 1.33-66.5z" fill="url(#h)"/><path d="m638 594c-7.85 8.11-28.3 18.6-34.6 22.6.332 12 1.12 31.1-6.65 51.9 10.9-2.76 31.1-7.85 39.9-7.98 3.13-27.8 2.22-49.7 1.33-66.5z" fill="url(#g)"/><path d="m785 286c2.59 9.57 2.03 15.7 3.99 21.3 12.3 0 28.4-2.66 39.9-2.66 10.6 0 17.5 1.24 31.4 1.24-7.9-7.88-17.8-17.2-27.4-19.9-6.84-1.89-45.7-.443-47.9 1e-5z" fill="url(#c)"/><path d="m783 285c15-.794 47.5-2.13 63.8 9.31 32.4 22.6 43.3 37.9 45.2 117 .693 28.6-11.3 88-27.9 114-42.8 67.9-92.7 85.6-170 118-23.8 10-135 39.9-185 35.9 30-22.6 186-120 229-172 59.6-73.1 57.9-163 45.2-223z" fill="url(#q)" stroke="#2a94fe" stroke-width="4"/></g></g></svg>
