<?xml version="1.0" encoding="UTF-8" standalone="no"?>
<svg
   xmlns:dc="http://purl.org/dc/elements/1.1/"
   xmlns:cc="http://creativecommons.org/ns#"
   xmlns:rdf="http://www.w3.org/1999/02/22-rdf-syntax-ns#"
   xmlns:svg="http://www.w3.org/2000/svg"
   xmlns="http://www.w3.org/2000/svg"
   xmlns:xlink="http://www.w3.org/1999/xlink"
   viewBox="0 0 830.1019 122.53281"
   version="1.1"
   id="svg1316"
   height="98.026253pt"
   width="664.08154pt">
  <defs
     id="defs1318">
    <linearGradient
       id="linearGradient5297">
      <stop
         id="stop5299"
         offset="0.0000000"
         style="stop-color:#5b5bed;stop-opacity:1.0000000;" />
      <stop
         style="stop-color:#5b5bed;stop-opacity:1.0000000;"
         offset="0.30000001"
         id="stop5301" />
      <stop
         style="stop-color:#4747eb;stop-opacity:1.0000000;"
         offset="0.44999999"
         id="stop5303" />
      <stop
         id="stop5305"
         offset="0.50000000"
         style="stop-color:#1818e6;stop-opacity:1.0000000;" />
      <stop
         id="stop5307"
         offset="0.55114156"
         style="stop-color:#1b1be6;stop-opacity:1.0000000;" />
      <stop
         style="stop-color:#0a0ae5;stop-opacity:1.0000000;"
         offset="0.69999999"
         id="stop5309" />
      <stop
         id="stop5311"
         offset="1.0000000"
         style="stop-color:#0a0ae5;stop-opacity:1.0000000;" />
    </linearGradient>
    <linearGradient
       id="linearGradient3069">
      <stop
         style="stop-color:#5555b0;stop-opacity:1.0000000;"
         offset="0.0000000"
         id="stop3071" />
      <stop
         id="stop3091"
         offset="0.30000001"
         style="stop-color:#5555b0;stop-opacity:1.0000000;" />
      <stop
         id="stop3073"
         offset="0.44999999"
         style="stop-color:#4040a6;stop-opacity:1.0000000;" />
      <stop
         style="stop-color:#1d1d96;stop-opacity:1.0000000;"
         offset="0.50000000"
         id="stop3089" />
      <stop
         style="stop-color:#000089;stop-opacity:1.0000000;"
         offset="0.55114156"
         id="stop3087" />
      <stop
         id="stop3093"
         offset="0.69999999"
         style="stop-color:#000089;stop-opacity:1.0000000;" />
      <stop
         style="stop-color:#000089;stop-opacity:1.0000000;"
         offset="1.0000000"
         id="stop3075" />
    </linearGradient>
    <linearGradient
       id="linearGradient10990">
      <stop
         style="stop-color:#007ffe;stop-opacity:0.62745100;"
         offset="0.00000000"
         id="stop10992" />
      <stop
         id="stop10996"
         offset="0.80357140"
         style="stop-color:#3d9eff;stop-opacity:0.62745100;" />
      <stop
         style="stop-color:#a5d2ff;stop-opacity:0.62745100;"
         offset="1.0000000"
         id="stop10998" />
    </linearGradient>
    <linearGradient
       id="linearGradient5817">
      <stop
         id="stop5819"
         offset="0.00000000"
         style="stop-color:#69b4ff;stop-opacity:1.0000000;" />
      <stop
         id="stop5821"
         offset="1.0000000"
         style="stop-color:#b0d8ff;stop-opacity:1.0000000;" />
    </linearGradient>
    <linearGradient
       id="linearGradient5809">
      <stop
         id="stop5811"
         offset="0.00000000"
         style="stop-color:#2727e8;stop-opacity:1.0000000;" />
      <stop
         id="stop5813"
         offset="1.0000000"
         style="stop-color:#5f5fee;stop-opacity:1.0000000;" />
    </linearGradient>
    <linearGradient
       id="linearGradient5074">
      <stop
         id="stop5076"
         offset="0.00000000"
         style="stop-color:#2b2b9c;stop-opacity:1.0000000;" />
      <stop
         style="stop-color:#4343a7;stop-opacity:1.0000000;"
         offset="0.00000000"
         id="stop3059" />
      <stop
         id="stop5078"
         offset="1.0000000"
         style="stop-color:#5c5cb3;stop-opacity:1.0000000;" />
    </linearGradient>
    <linearGradient
       id="linearGradient5066">
      <stop
         id="stop5068"
         offset="0.00000000"
         style="stop-color:#ffffff;stop-opacity:0.62886596;" />
      <stop
         id="stop5070"
         offset="1.0000000"
         style="stop-color:#ffffff;stop-opacity:0.00000000;" />
    </linearGradient>
    <linearGradient
       id="linearGradient4996">
      <stop
         id="stop4998"
         offset="0"
         style="stop-color:#ffffff;stop-opacity:1;" />
      <stop
         id="stop5000"
         offset="1"
         style="stop-color:#ffffff;stop-opacity:0;" />
    </linearGradient>
    <linearGradient
       gradientTransform="rotate(90,1025.4101,309.4459)"
       gradientUnits="userSpaceOnUse"
       y2="309.44614"
       x2="1128.4288"
       y1="309.44614"
       x1="922.39185"
       id="linearGradient4561"
       xlink:href="#linearGradient3069" />
    <linearGradient
       gradientTransform="rotate(90,339.92633,290.17486)"
       gradientUnits="userSpaceOnUse"
       y2="290.17487"
       x2="419.99298"
       y1="290.17487"
       x1="259.85971"
       id="linearGradient5295"
       xlink:href="#linearGradient5297" />
    <linearGradient
       gradientUnits="userSpaceOnUse"
       y2="342.14508"
       x2="-89.35968"
       y1="342.14508"
       x1="-490.12531"
       id="linearGradient6069"
       xlink:href="#linearGradient5297" />
    <linearGradient
       gradientTransform="rotate(90,339.92637,309.44733)"
       gradientUnits="userSpaceOnUse"
       y2="309.4473"
       x2="443.81763"
       y1="309.4473"
       x1="236.03506"
       id="linearGradient7539"
       xlink:href="#linearGradient5297" />
    <linearGradient
       y2="309.44614"
       x2="1128.4288"
       y1="309.44614"
       x1="922.39185"
       gradientTransform="rotate(90,1025.4101,309.4459)"
       gradientUnits="userSpaceOnUse"
       id="linearGradient8275"
       xlink:href="#linearGradient3069" />
    <linearGradient
       y2="309.4473"
       x2="443.81763"
       y1="309.4473"
       x1="236.03506"
       gradientTransform="rotate(90,339.92637,309.44733)"
       gradientUnits="userSpaceOnUse"
       id="linearGradient8277"
       xlink:href="#linearGradient5297" />
    <linearGradient
       y2="309.44614"
       x2="1128.4288"
       y1="309.44614"
       x1="922.39185"
       gradientTransform="rotate(90,1025.4101,309.4459)"
       gradientUnits="userSpaceOnUse"
       id="linearGradient2885"
       xlink:href="#linearGradient3069" />
    <linearGradient
       y2="309.4473"
       x2="443.81763"
       y1="309.4473"
       x1="236.03506"
       gradientTransform="rotate(90,339.92637,309.44733)"
       gradientUnits="userSpaceOnUse"
       id="linearGradient2887"
       xlink:href="#linearGradient5297" />
    <linearGradient
       id="linearGradient2098">
      <stop
         style="stop-color:#ffffff;stop-opacity:1;"
         offset="0"
         id="stop2100" />
      <stop
         style="stop-color:#ffffff;stop-opacity:0;"
         offset="1"
         id="stop2102" />
    </linearGradient>
    <linearGradient
       id="linearGradient5006">
      <stop
         style="stop-color:#dfefff;stop-opacity:0.50196081;"
         offset="0.00000000"
         id="stop5008" />
      <stop
         id="stop10260"
         offset="0.69999999"
         style="stop-color:#8ec6fe;stop-opacity:0.50196078;" />
      <stop
         id="stop5016"
         offset="0.80000001"
         style="stop-color:#3e9dfe;stop-opacity:0.50196081;" />
      <stop
         style="stop-color:#007dfd;stop-opacity:0.50196081;"
         offset="1.0000000"
         id="stop5010" />
    </linearGradient>
    <linearGradient
       id="linearGradient2087">
      <stop
         style="stop-color:#ffffff;stop-opacity:0.62886596;"
         offset="0.00000000"
         id="stop2089" />
      <stop
         style="stop-color:#ffffff;stop-opacity:0.00000000;"
         offset="1.0000000"
         id="stop2091" />
    </linearGradient>
    <linearGradient
       id="linearGradient2081">
      <stop
         style="stop-color:#2b2b9c;stop-opacity:1.0000000;"
         offset="0.00000000"
         id="stop2083" />
      <stop
         style="stop-color:#5c5cb3;stop-opacity:1.0000000;"
         offset="1.0000000"
         id="stop2085" />
    </linearGradient>
    <linearGradient
       id="linearGradient2075">
      <stop
         style="stop-color:#2727e8;stop-opacity:1.0000000;"
         offset="0.00000000"
         id="stop2077" />
      <stop
         style="stop-color:#5f5fee;stop-opacity:1.0000000;"
         offset="1.0000000"
         id="stop2079" />
    </linearGradient>
    <linearGradient
       id="linearGradient2069">
      <stop
         style="stop-color:#69b4ff;stop-opacity:1.0000000;"
         offset="0.00000000"
         id="stop2071" />
      <stop
         style="stop-color:#b0d8ff;stop-opacity:1.0000000;"
         offset="1.0000000"
         id="stop2073" />
    </linearGradient>
    <linearGradient
       id="linearGradient2061">
      <stop
         id="stop2063"
         offset="0.00000000"
         style="stop-color:#007ffe;stop-opacity:0.62745100;" />
      <stop
         style="stop-color:#3d9eff;stop-opacity:0.62745100;"
         offset="0.80357140"
         id="stop2065" />
      <stop
         id="stop2067"
         offset="1.0000000"
         style="stop-color:#a5d2ff;stop-opacity:0.62745100;" />
    </linearGradient>
    <linearGradient
       id="linearGradient4697">
      <stop
         style="stop-color:black;stop-opacity:0.49779737;"
         offset="0"
         id="stop4699" />
      <stop
         id="stop4707"
         offset="0.89999998"
         style="stop-color:black;stop-opacity:0.49803922;" />
      <stop
         style="stop-color:black;stop-opacity:0;"
         offset="1"
         id="stop4701" />
    </linearGradient>
    <linearGradient
       id="linearGradient5598">
      <stop
         style="stop-color:black;stop-opacity:0.49779737;"
         offset="0"
         id="stop5600" />
      <stop
         id="stop5606"
         offset="0.95266271"
         style="stop-color:black;stop-opacity:0.49803922;" />
      <stop
         style="stop-color:black;stop-opacity:0;"
         offset="1"
         id="stop5602" />
    </linearGradient>
    <radialGradient
       xlink:href="#linearGradient10990"
       id="radialGradient2201"
       cx="822.35791"
       cy="334.10477"
       fx="822.35791"
       fy="334.10477"
       r="37.6567"
       gradientTransform="matrix(1.389618,6.572876e-8,-1.395947e-8,0.295127,-320.4053,208.9576)"
       gradientUnits="userSpaceOnUse" />
    <radialGradient
       xlink:href="#linearGradient10990"
       id="radialGradient2199"
       cx="834.06329"
       cy="379.37366"
       fx="834.06329"
       fy="379.37366"
       r="48.537544"
       gradientTransform="matrix(1.604552,0.137396,-0.04558732,0.532382,-483.7593,40.20253)"
       gradientUnits="userSpaceOnUse" />
    <radialGradient
       xlink:href="#linearGradient10990"
       id="radialGradient2197"
       cx="834.16461"
       cy="416.6268"
       fx="834.16461"
       fy="416.6268"
       r="51.490337"
       gradientTransform="matrix(1.536957,0.35811,-0.115486,0.495648,-399.7957,-103.5899)"
       gradientUnits="userSpaceOnUse" />
    <radialGradient
       xlink:href="#linearGradient10990"
       id="radialGradient2195"
       cx="559.93085"
       cy="653.19714"
       fx="559.93085"
       fy="653.19714"
       r="22.916662"
       gradientTransform="matrix(-0.523809,2.977912,-0.573765,-0.100924,1228.009,-946.1174)"
       gradientUnits="userSpaceOnUse" />
    <radialGradient
       xlink:href="#linearGradient10990"
       id="radialGradient2193"
       cx="596.68011"
       cy="635.96777"
       fx="596.68011"
       fy="635.96777"
       r="21.03826"
       gradientTransform="matrix(-0.492499,4.368806,-0.629878,-0.07100652,1291.618,-1922.867)"
       gradientUnits="userSpaceOnUse" />
    <radialGradient
       xlink:href="#linearGradient10990"
       id="radialGradient2191"
       cx="637.07098"
       cy="620.45239"
       fx="637.07098"
       fy="620.45239"
       r="20.071379"
       gradientTransform="matrix(1.261524e-6,4.784578,-0.528762,1.394159e-7,965.1414,-2422.591)"
       gradientUnits="userSpaceOnUse" />
    <radialGradient
       xlink:href="#linearGradient10990"
       id="radialGradient2189"
       cx="665.83667"
       cy="613.8067"
       fx="665.83667"
       fy="613.8067"
       r="23.940041"
       gradientTransform="matrix(0.334297,4.019557,-0.995094,0.08275962,1049.196,-2119.664)"
       gradientUnits="userSpaceOnUse" />
    <radialGradient
       xlink:href="#linearGradient10990"
       id="radialGradient2187"
       cx="696.78522"
       cy="592.33008"
       fx="696.78522"
       fy="592.33008"
       r="27.265039"
       gradientTransform="matrix(0.948955,4.089824,-0.993629,0.230546,618.9203,-2395.403)"
       gradientUnits="userSpaceOnUse" />
    <radialGradient
       xlink:href="#linearGradient10990"
       id="radialGradient2185"
       cx="734.74274"
       cy="565.7605"
       fx="734.74274"
       fy="565.7605"
       r="39.235065"
       gradientTransform="matrix(0.747853,2.224634,-0.425239,0.142953,425.8485,-1143.798)"
       gradientUnits="userSpaceOnUse" />
    <radialGradient
       xlink:href="#linearGradient10990"
       id="radialGradient2183"
       cx="793.18164"
       cy="558.89948"
       fx="793.18164"
       fy="558.89948"
       r="55.195084"
       gradientTransform="matrix(1.006265,1.510239,-0.401621,0.267598,190.2906,-807.7667)"
       gradientUnits="userSpaceOnUse" />
    <radialGradient
       xlink:href="#linearGradient10990"
       id="radialGradient2181"
       cx="799.92041"
       cy="520.16986"
       fx="799.92041"
       fy="520.16986"
       r="57.855091"
       gradientTransform="matrix(1.238186,1.07492,-0.532416,0.613282,86.41636,-661.0496)"
       gradientUnits="userSpaceOnUse" />
    <radialGradient
       xlink:href="#linearGradient10990"
       id="radialGradient2179"
       cx="825.40234"
       cy="457.29218"
       fx="825.40234"
       fy="457.29218"
       r="53.865082"
       gradientTransform="matrix(1.442415,0.58951,-0.216275,0.529183,-263.7724,-273.2994)"
       gradientUnits="userSpaceOnUse" />
    <radialGradient
       xlink:href="#linearGradient5817"
       id="radialGradient2177"
       cx="425.42249"
       cy="432.99265"
       fx="425.42249"
       fy="432.99265"
       r="165.43961"
       gradientTransform="matrix(0.546319,0.218253,-0.436865,1.093538,682.5932,-137.1927)"
       gradientUnits="userSpaceOnUse" />
    <linearGradient
       xlink:href="#linearGradient5809"
       id="linearGradient2175"
       x1="441.50293"
       y1="596.54565"
       x2="553.63983"
       y2="786.83405"
       gradientUnits="userSpaceOnUse"
       gradientTransform="translate(289.9404)" />
    <linearGradient
       xlink:href="#linearGradient5074"
       id="linearGradient2173"
       x1="331.57434"
       y1="354.45773"
       x2="225.65819"
       y2="133.54459"
       gradientUnits="userSpaceOnUse"
       gradientTransform="translate(289.9404)" />
    <linearGradient
       xlink:href="#linearGradient5066"
       id="linearGradient2171"
       x1="225.43034"
       y1="682.32623"
       x2="518.04419"
       y2="294.85672"
       gradientUnits="userSpaceOnUse"
       gradientTransform="translate(289.9404)" />
    <linearGradient
       xlink:href="#linearGradient4996"
       id="linearGradient2169"
       x1="544.29083"
       y1="213.74759"
       x2="253.71039"
       y2="653.04156"
       gradientUnits="userSpaceOnUse"
       gradientTransform="translate(289.9404)" />
    <linearGradient
       id="linearGradient2163">
      <stop
         style="stop-color:#ffffff;stop-opacity:1;"
         offset="0"
         id="stop2165" />
      <stop
         style="stop-color:#ffffff;stop-opacity:0;"
         offset="1"
         id="stop2167" />
    </linearGradient>
    <linearGradient
       id="linearGradient2153">
      <stop
         style="stop-color:#dfefff;stop-opacity:0.50196081;"
         offset="0.00000000"
         id="stop2155" />
      <stop
         id="stop2157"
         offset="0.69999999"
         style="stop-color:#8ec6fe;stop-opacity:0.50196078;" />
      <stop
         id="stop2159"
         offset="0.80000001"
         style="stop-color:#3e9dfe;stop-opacity:0.50196081;" />
      <stop
         style="stop-color:#007dfd;stop-opacity:0.50196081;"
         offset="1.0000000"
         id="stop2161" />
    </linearGradient>
    <linearGradient
       id="linearGradient2147">
      <stop
         style="stop-color:#ffffff;stop-opacity:0.62886596;"
         offset="0.00000000"
         id="stop2149" />
      <stop
         style="stop-color:#ffffff;stop-opacity:0.00000000;"
         offset="1.0000000"
         id="stop2151" />
    </linearGradient>
    <linearGradient
       id="linearGradient2141">
      <stop
         style="stop-color:#2b2b9c;stop-opacity:1.0000000;"
         offset="0.00000000"
         id="stop2143" />
      <stop
         style="stop-color:#5c5cb3;stop-opacity:1.0000000;"
         offset="1.0000000"
         id="stop2145" />
    </linearGradient>
    <linearGradient
       id="linearGradient2135">
      <stop
         style="stop-color:#2727e8;stop-opacity:1.0000000;"
         offset="0.00000000"
         id="stop2137" />
      <stop
         style="stop-color:#5f5fee;stop-opacity:1.0000000;"
         offset="1.0000000"
         id="stop2139" />
    </linearGradient>
    <linearGradient
       id="linearGradient2129">
      <stop
         style="stop-color:#69b4ff;stop-opacity:1.0000000;"
         offset="0.00000000"
         id="stop2131" />
      <stop
         style="stop-color:#b0d8ff;stop-opacity:1.0000000;"
         offset="1.0000000"
         id="stop2133" />
    </linearGradient>
    <linearGradient
       id="linearGradient2121">
      <stop
         id="stop2123"
         offset="0.00000000"
         style="stop-color:#007ffe;stop-opacity:0.62745100;" />
      <stop
         style="stop-color:#3d9eff;stop-opacity:0.62745100;"
         offset="0.80357140"
         id="stop2125" />
      <stop
         id="stop2127"
         offset="1.0000000"
         style="stop-color:#a5d2ff;stop-opacity:0.62745100;" />
    </linearGradient>
    <linearGradient
       id="linearGradient2113">
      <stop
         style="stop-color:black;stop-opacity:0.49779737;"
         offset="0"
         id="stop2115" />
      <stop
         id="stop2117"
         offset="0.89999998"
         style="stop-color:black;stop-opacity:0.49803922;" />
      <stop
         style="stop-color:black;stop-opacity:0;"
         offset="1"
         id="stop2119" />
    </linearGradient>
    <linearGradient
       id="linearGradient2105">
      <stop
         style="stop-color:black;stop-opacity:0.49779737;"
         offset="0"
         id="stop2107" />
      <stop
         id="stop2109"
         offset="0.95266271"
         style="stop-color:black;stop-opacity:0.49803922;" />
      <stop
         style="stop-color:black;stop-opacity:0;"
         offset="1"
         id="stop2111" />
    </linearGradient>
    <radialGradient
       r="165.43961"
       fy="432.99265"
       fx="425.42249"
       cy="432.99265"
       cx="425.42249"
       gradientTransform="matrix(0.546319,0.218253,-0.436865,1.093538,682.5932,-137.1927)"
       gradientUnits="userSpaceOnUse"
       id="radialGradient2341"
       xlink:href="#linearGradient5817" />
    <radialGradient
       r="22.916662"
       fy="653.19714"
       fx="559.93085"
       cy="653.19714"
       cx="559.93085"
       gradientTransform="matrix(-0.523809,2.977912,-0.573765,-0.100924,1228.009,-946.1174)"
       gradientUnits="userSpaceOnUse"
       id="radialGradient2343"
       xlink:href="#linearGradient10990" />
    <linearGradient
       y2="653.04156"
       x2="253.71039"
       y1="213.74759"
       x1="544.29083"
       gradientTransform="translate(289.9404)"
       gradientUnits="userSpaceOnUse"
       id="linearGradient2345"
       xlink:href="#linearGradient4996" />
    <radialGradient
       r="55.195084"
       fy="558.89948"
       fx="793.18164"
       cy="558.89948"
       cx="793.18164"
       gradientTransform="matrix(1.006265,1.510239,-0.401621,0.267598,190.2906,-807.7667)"
       gradientUnits="userSpaceOnUse"
       id="radialGradient2347"
       xlink:href="#linearGradient10990" />
    <radialGradient
       r="48.537544"
       fy="379.37366"
       fx="834.06329"
       cy="379.37366"
       cx="834.06329"
       gradientTransform="matrix(1.604552,0.137396,-0.04558732,0.532382,-483.7593,40.20253)"
       gradientUnits="userSpaceOnUse"
       id="radialGradient2349"
       xlink:href="#linearGradient10990" />
    <radialGradient
       r="51.490337"
       fy="416.6268"
       fx="834.16461"
       cy="416.6268"
       cx="834.16461"
       gradientTransform="matrix(1.536957,0.35811,-0.115486,0.495648,-399.7957,-103.5899)"
       gradientUnits="userSpaceOnUse"
       id="radialGradient2351"
       xlink:href="#linearGradient10990" />
    <radialGradient
       r="53.865082"
       fy="457.29218"
       fx="825.40234"
       cy="457.29218"
       cx="825.40234"
       gradientTransform="matrix(1.442415,0.58951,-0.216275,0.529183,-263.7724,-273.2994)"
       gradientUnits="userSpaceOnUse"
       id="radialGradient2353"
       xlink:href="#linearGradient10990" />
    <radialGradient
       r="57.855091"
       fy="520.16986"
       fx="799.92041"
       cy="520.16986"
       cx="799.92041"
       gradientTransform="matrix(1.238186,1.07492,-0.532416,0.613282,86.41636,-661.0496)"
       gradientUnits="userSpaceOnUse"
       id="radialGradient2355"
       xlink:href="#linearGradient10990" />
    <radialGradient
       r="39.235065"
       fy="565.7605"
       fx="734.74274"
       cy="565.7605"
       cx="734.74274"
       gradientTransform="matrix(0.747853,2.224634,-0.425239,0.142953,425.8485,-1143.798)"
       gradientUnits="userSpaceOnUse"
       id="radialGradient2357"
       xlink:href="#linearGradient10990" />
    <radialGradient
       r="27.265039"
       fy="592.33008"
       fx="696.78522"
       cy="592.33008"
       cx="696.78522"
       gradientTransform="matrix(0.948955,4.089824,-0.993629,0.230546,618.9203,-2395.403)"
       gradientUnits="userSpaceOnUse"
       id="radialGradient2359"
       xlink:href="#linearGradient10990" />
    <radialGradient
       r="23.940041"
       fy="613.8067"
       fx="665.83667"
       cy="613.8067"
       cx="665.83667"
       gradientTransform="matrix(0.334297,4.019557,-0.995094,0.08275962,1049.196,-2119.664)"
       gradientUnits="userSpaceOnUse"
       id="radialGradient2361"
       xlink:href="#linearGradient10990" />
    <radialGradient
       r="20.071379"
       fy="620.45239"
       fx="637.07098"
       cy="620.45239"
       cx="637.07098"
       gradientTransform="matrix(1.261524e-6,4.784578,-0.528762,1.394159e-7,965.1414,-2422.591)"
       gradientUnits="userSpaceOnUse"
       id="radialGradient2363"
       xlink:href="#linearGradient10990" />
    <radialGradient
       r="21.03826"
       fy="635.96777"
       fx="596.68011"
       cy="635.96777"
       cx="596.68011"
       gradientTransform="matrix(-0.492499,4.368806,-0.629878,-0.07100652,1291.618,-1922.867)"
       gradientUnits="userSpaceOnUse"
       id="radialGradient2365"
       xlink:href="#linearGradient10990" />
    <radialGradient
       r="37.6567"
       fy="334.10477"
       fx="822.35791"
       cy="334.10477"
       cx="822.35791"
       gradientTransform="matrix(1.389618,6.572876e-8,-1.395947e-8,0.295127,-320.4053,208.9576)"
       gradientUnits="userSpaceOnUse"
       id="radialGradient2367"
       xlink:href="#linearGradient10990" />
    <linearGradient
       y2="294.85672"
       x2="518.04419"
       y1="682.32623"
       x1="225.43034"
       gradientTransform="translate(289.9404)"
       gradientUnits="userSpaceOnUse"
       id="linearGradient2369"
       xlink:href="#linearGradient5066" />
  </defs>
  <metadata
     id="metadata1321">
    <rdf:RDF>
      <cc:Work
         rdf:about="">
        <dc:format>image/svg+xml</dc:format>
        <dc:type
           rdf:resource="http://purl.org/dc/dcmitype/StillImage" />
        <dc:title></dc:title>
      </cc:Work>
    </rdf:RDF>
  </metadata>
  <g
     transform="translate(-229.72004,-330.10474)"
     id="layer1" />
  <g
     transform="translate(-229.72004,-330.10474)"
     id="layer2">
    <g
       id="g2469">
      <g
         id="g7545"
         style="stroke:none"
         transform="matrix(0.594788,0,0,0.594788,147.5101,207.3156)">
        <path
           d="m 577.11095,213.75446 h 50.09503 l 34.75981,81.68547 34.96428,-81.68547 h 49.99279 V 366.39093 H 709.70942 V 254.75056 l -35.16876,82.29897 H 649.59539 L 614.42663,254.75056 V 366.39093 H 577.11095 V 213.75446 m 261.0053,61.5453 c -8.11069,1e-4 -14.31292,2.9308 -18.60673,8.79217 -4.22575,5.7933 -6.3386,14.1766 -6.33855,25.1497 -5e-5,10.9732 2.1128,19.3906 6.33855,25.252 4.29381,5.7933 10.49604,8.69 18.60673,8.69 7.97423,0 14.07423,-2.8967 18.30002,-8.69 4.22561,-5.8614 6.33845,-14.2788 6.33855,-25.252 -10e-5,-10.9731 -2.11294,-19.3564 -6.33855,-25.1497 -4.22579,-5.86137 -10.32579,-8.79207 -18.30002,-8.79217 m 0,-26.1721 c 19.69713,1e-4 35.06641,5.3163 46.10787,15.9486 11.10938,10.6325 16.66413,25.35427 16.66426,44.16537 -1.3e-4,18.8112 -5.55488,33.5331 -16.66426,44.1654 -11.04146,10.6325 -26.41074,15.9487 -46.10787,15.9487 -19.76544,0 -35.23695,-5.3162 -46.41458,-15.9487 -11.10952,-10.6323 -16.66427,-25.3542 -16.66426,-44.1654 -10e-6,-18.8111 5.55474,-33.53287 16.66426,-44.16537 11.17763,-10.6323 26.64914,-15.9485 46.41458,-15.9486 m 204.57175,47.53907 v 69.7242 h -36.8045 v -11.3481 -42.0185 c -10e-5,-9.8826 -0.2387,-16.6983 -0.7157,-20.447 -0.409,-3.7485 -1.1587,-6.5088 -2.2491,-8.281 -1.4314,-2.38537 -3.37387,-4.22557 -5.82741,-5.52067 -2.45372,-1.363 -5.24813,-2.0446 -8.38325,-2.0446 -7.6336,0 -13.63136,2.9648 -17.99332,8.89437 -4.36207,5.8615 -6.54307,14.0062 -6.54302,24.4341 v 56.3314 H 927.57166 V 251.88796 h 36.60004 v 16.7665 c 5.52062,-6.6792 11.38207,-11.5865 17.58438,-14.7218 6.20216,-3.2032 13.05188,-4.8049 20.54922,-4.805 13.2222,1e-4 23.2412,4.0554 30.057,12.1659 6.8837,8.1107 10.3256,19.9018 10.3257,35.37317 m 34.1464,-89.35307 h 36.6 v 86.59277 l 42.1207,-42.01847 h 42.5297 l -55.9224,52.54867 60.3185,61.9543 h -44.3699 l -44.6766,-47.7437 v 47.7437 h -36.6 V 207.31366 m 253.7467,101.51907 v 10.4279 h -85.5705 c 0.886,8.5878 3.9871,15.0285 9.3033,19.3224 5.3162,4.2939 12.7452,6.4408 22.2872,6.4408 7.7016,0 15.5737,-1.1246 23.6162,-3.3738 8.1105,-2.3172 16.4256,-5.7932 24.9453,-10.4279 v 28.2168 c -8.656,3.2715 -17.3118,5.7251 -25.9676,7.3609 -8.656,1.7039 -17.3118,2.5559 -25.9676,2.5559 -20.7197,0 -36.8387,-5.2481 -48.3571,-15.7442 -11.4503,-10.5642 -17.1754,-25.3542 -17.1754,-44.3699 0,-18.6748 5.6229,-33.36247 16.8687,-44.06317 11.314,-10.7004 26.8536,-16.0507 46.6191,-16.0508 17.9932,1e-4 32.3742,5.4185 43.143,16.2553 10.8368,10.837 16.2552,25.32017 16.2554,43.44977 m -37.6224,-12.166 c -10e-5,-6.9519 -2.0448,-12.5407 -6.1341,-16.76647 -4.0213,-4.2937 -9.3035,-6.4407 -15.8464,-6.4408 -7.0883,1e-4 -12.8476,2.0107 -17.2777,6.0319 -4.4302,3.9532 -7.1905,9.67827 -8.281,17.17537 h 47.5392 m 50.6062,-44.77877 h 36.6 l 30.7727,77.69837 26.1721,-77.69837 h 36.6 l -48.1525,125.33977 c -4.8392,12.7453 -10.4962,21.6397 -16.971,26.6833 -6.4068,5.1117 -14.8923,7.6676 -25.4565,7.6676 h -21.1626 v -24.0252 h 11.4503 c 6.2022,0 10.7006,-0.9882 13.495,-2.9648 2.8625,-1.9765 5.0776,-5.5207 6.6453,-10.6324 l 1.0223,-3.1693 -51.0151,-118.89897"
           style="font-style:normal;font-variant:normal;font-weight:bold;font-stretch:normal;font-size:209.37675476px;line-height:125%;font-family:'Bitstream Vera Sans';text-align:start;writing-mode:lr-tb;text-anchor:start;fill:url(#linearGradient2885);fill-opacity:1;stroke:none;stroke-width:1.77165353;stroke-linecap:butt;stroke-linejoin:miter;stroke-miterlimit:4;stroke-dasharray:none;stroke-opacity:1"
           id="path2298" />
        <path
           d="m 248.63073,218.55944 v 32.30618 c -8.38336,-3.74849 -16.56213,-6.57698 -24.53634,-8.48548 -7.9744,-1.90826 -15.50568,-2.86245 -22.59387,-2.86258 -9.40567,1.3e-4 -16.35762,1.2951 -20.85589,3.88492 -4.49838,2.59007 -6.74754,6.6113 -6.74749,12.0637 -5e-5,4.0895 1.49939,7.29285 4.49832,9.61007 3.06699,2.24926 8.58766,4.19172 16.56203,5.82738 l 16.7665,3.37375 c 16.97086,3.40791 29.03455,8.5878 36.1911,15.53968 7.1563,6.95203 10.73451,16.83471 10.73465,29.64807 -1.4e-4,16.83469 -5.00963,29.37547 -15.02851,37.62239 -9.95096,8.17878 -25.18392,12.26816 -45.69893,12.26817 -9.67829,-10e-6 -19.39058,-0.92012 -29.1369,-2.76034 -9.74642,-1.84023 -19.49279,-4.56648 -29.23914,-8.17878 v -33.22629 c 9.74635,5.17993 19.15194,9.09892 28.21679,11.75699 9.13292,2.58998 17.9251,3.88495 26.37657,3.88492 8.58763,3e-5 15.16473,-1.43126 19.7313,-4.29386 4.56639,-2.86254 6.84963,-6.95192 6.84973,-12.26817 -1e-4,-4.7709 -1.5677,-8.45135 -4.7028,-11.04135 -3.06713,-2.58989 -9.23529,-4.90721 -18.50449,-6.95196 l -15.23298,-3.37375 c -15.26709,-3.27144 -26.44475,-8.48541 -33.53299,-15.64191 -7.02014,-7.15635 -10.53019,-16.80048 -10.53018,-28.93243 -1e-5,-15.19878 4.90725,-26.88761 14.7218,-35.06652 9.8145,-8.17863 23.92288,-12.26802 42.32519,-12.26817 8.38317,1.5e-4 17.00495,0.64764 25.86539,1.94246 8.86024,1.22697 18.02727,3.10127 27.50114,5.62291 m 157.74821,90.27328 v 10.42794 h -85.57048 c 0.88599,8.58776 3.98711,15.02854 9.30336,19.32237 5.31615,4.29388 12.7452,6.44081 22.28718,6.44079 7.70159,2e-5 15.57366,-1.12456 23.61622,-3.37375 8.11052,-2.31729 16.4256,-5.79327 24.94528,-10.42794 v 28.21679 c -8.65599,3.27151 -17.31186,5.72514 -25.96763,7.3609 -8.65596,1.70391 -17.31183,2.55586 -25.96762,2.55587 -20.71963,-10e-6 -36.83862,-5.24805 -48.35703,-15.74415 -11.45031,-10.56424 -17.17545,-25.35418 -17.17544,-44.36988 -10e-6,-18.67481 5.6229,-33.36252 16.86873,-44.06318 11.31394,-10.70045 26.85361,-16.05073 46.61905,-16.05085 17.99322,1.2e-4 32.37423,5.41855 43.14306,16.25532 10.83675,10.83698 16.25519,25.32022 16.25532,43.44977 m -37.62238,-12.16594 c -10e-5,-6.95188 -2.04479,-12.54071 -6.13409,-16.76649 -4.02132,-4.29377 -9.30344,-6.4407 -15.84638,-6.44079 -7.08835,9e-5 -12.84756,2.0107 -17.27768,6.03185 -4.43022,3.95316 -7.19055,9.6783 -8.28101,17.17543 h 47.53916 m 116.95652,18.19779 c -7.63358,5e-5 -13.3928,1.29502 -17.27767,3.88492 -3.81681,2.58999 -5.72519,6.40675 -5.72514,11.45029 -5e-5,4.63467 1.53347,8.28104 4.60056,10.93912 3.13515,2.58997 7.46308,3.88494 12.98381,3.88492 6.88374,2e-5 12.67703,-2.45361 17.37991,-7.3609 4.70271,-4.97539 7.05411,-11.17763 7.0542,-18.60673 v -4.19162 h -19.01567 m 55.92241,-13.80169 v 65.328 h -36.90674 v -16.97097 c -4.90735,6.95197 -10.42802,12.02963 -16.56203,15.23298 -6.13415,3.1352 -13.59728,4.70279 -22.38941,4.7028 -11.85927,-10e-6 -21.5034,-3.44191 -28.93243,-10.32571 -7.36092,-6.95195 -11.04136,-15.9486 -11.04136,-26.98997 0,-13.42679 4.60055,-23.27539 13.80169,-29.54585 9.26926,-6.27032 23.78658,-9.40552 43.55201,-9.40559 h 21.57153 V 290.226 c -9e-5,-5.79322 -2.28333,-10.01892 -6.84973,-12.67711 -4.56656,-2.72617 -11.68891,-4.0893 -21.36706,-4.08939 -7.83805,9e-5 -15.13079,0.78389 -21.87824,2.3514 -6.74752,1.56768 -13.01791,3.91908 -18.81119,7.05419 v -27.91008 c 7.83797,-1.90827 15.71004,-3.33955 23.61623,-4.29386 7.9061,-1.02223 15.81224,-1.5334 23.71846,-1.53352 20.65133,1.2e-4 35.54351,4.0895 44.67658,12.26817 9.20101,8.11072 13.80156,21.33306 13.80169,39.66708 M 337.40735,412.45276 h 6.47435 v -0.002 h -6.47435 z m 3.2998,-206.0109 h 6.07625 v 0 z"
           style="font-style:normal;font-variant:normal;font-weight:bold;font-stretch:normal;font-size:209.37675476px;line-height:125%;font-family:'Bitstream Vera Sans';text-align:start;writing-mode:lr-tb;text-anchor:start;fill:url(#linearGradient2887);fill-opacity:1;stroke:none;stroke-width:1.77165353;stroke-linecap:butt;stroke-linejoin:miter;stroke-miterlimit:4;stroke-opacity:1"
           id="text1430" />
      </g>
      <text
         transform="scale(1.001013,0.998988)"
         id="text1958"
         y="350.62857"
         x="1034.9543"
         style="font-style:normal;font-variant:normal;font-weight:normal;font-stretch:normal;line-height:0%;font-family:'Bitstream Vera Sans';text-align:start;writing-mode:lr-tb;text-anchor:start;fill:#26269a;fill-opacity:1;stroke:none;stroke-width:1px;stroke-linecap:butt;stroke-linejoin:miter;stroke-opacity:1"
         xml:space="preserve"><tspan
           style="font-size:27.61043358px;line-height:1.25"
           y="350.62857"
           x="1034.9543"
           id="tspan1960">®</tspan></text>
    </g>
  </g>
</svg>
