<svg width="216pt" height="34.4pt" version="1.2" viewBox="0 0 215.64 34.35" xmlns="http://www.w3.org/2000/svg"><defs><clipPath id="f"><path d="m46 9h20v25.4h-20z"/></clipPath><clipPath id="e"><path d="m88 0h21v34.4h-21z"/></clipPath><clipPath id="d"><path d="m109 9h21v25.4h-21z"/></clipPath><clipPath id="c"><path d="m146 0h21v34.4h-21z"/></clipPath><clipPath id="b"><path d="m191 0h21v34.4h-21z"/></clipPath><clipPath id="a"><path d="m212 9h3.64v5h-3.64z"/></clipPath></defs><path d="m21.2 6.43h-7.94v27.2h-5.25v-27.2h-7.98v-4.38h21.9l-.688 4.38" fill="#105399"/><path d="m38.1 33.6v-15.7c0-2.88-1-3.7-2.92-3.7-1.78 0-3.92 1.14-5.57 2.83v16.6h-5.06v-27.5c0-2.05-.184-3.83-.453-5.02l5.06-1.1c.32 1.32.453 3.2.453 5.43v4.93c0 1.46-.0859 2.6-.0859 2.6 2.28-2.05 4.61-3.01 7.07-3.01 2.73 0 4.83 1.32 5.61 2.83.594 1.14.777 2.19.777 4.52v16.3h-4.88" fill="#105399"/><g clip-path="url(#f)"><path d="m61.8 34.4c-1-.73-1.6-1.55-2.01-2.88-1.68 1.92-3.92 2.83-6.57 2.83-2.6 0-4.61-.91-5.75-2.28-.914-1.09-1.28-2.6-1.28-5.47v-15.6l4.93-.914v15.5c0 2.88.41 4.97 3.38 4.97 1.69 0 3.74-1.37 4.52-3.01v-16.5l4.84-.914v17.4c0 3.47 1.41 4.61 1.41 4.61l-3.46 2.37" fill="#105399"/></g><path d="m80.5 33.6v-15.3c0-3.15-.73-4.02-2.64-4.02-1.46 0-3.56 1.1-5.07 2.6v16.7h-4.93v-17c0-2.42-.23-3.83-.867-5.48l4.56-1.28c.547 1.05.82 2.05.82 3.29 2.46-2.1 4.61-3.2 7.07-3.2 3.55 0 6.02 2.14 6.02 6.39v17.2h-4.97" fill="#105399"/><g clip-path="url(#e)"><path d="m103 16c-1.14-1.23-2.51-1.87-4.2-1.87-3.19 0-4.65 2.55-4.65 8.12 0 5.11 1 7.66 4.79 7.66 1.87 0 3.38-1.05 4.06-2.19zm1.09 17.6c-.227-.504-.273-.82-.41-1.78-1.55 1.55-3.38 2.28-5.66 2.28-5.89 0-9.45-4.61-9.45-11.8 0-7.25 4.02-12.2 9.58-12.2 1.96 0 3.55.641 4.97 2.1 0 0-.133-1.78-.133-3.79v-8.44l4.97.773v24.8c0 4.56.277 6.89.73 8.03h-4.61" fill="#105399"/></g><g clip-path="url(#d)"><path d="m120 13.8c-2.83 0-4.38 2.23-4.38 5.97h8.53c0-3.74-1.64-5.97-4.15-5.97zm-4.43 9.67v.363c0 3.2 1.18 6.57 5.7 6.57 2.14 0 4.02-.777 5.75-2.28l1.96 3.05c-2.42 2.05-5.2 3.06-8.3 3.06-6.52 0-10.6-4.7-10.6-12.1 0-4.06.867-6.75 2.87-9.04 1.87-2.14 4.15-3.1 7.07-3.1 2.28 0 4.38.594 6.34 2.38 2.01 1.82 3.01 4.65 3.01 10v1.05h-13.8" fill="#105399"/></g><path d="m143 14.9c-.504-.184-.867-.32-1.42-.32-2.09 0-3.88 1.55-4.33 3.42v15.6h-5.02v-16.3c0-2.92-.32-4.79-.824-6.21l4.61-1.18c.547 1.05.867 2.37.867 3.65 1.82-2.51 3.65-3.7 5.89-3.7.727 0 1.18.0898 1.78.363l-1.55 4.66" fill="#105399"/><g clip-path="url(#c)"><path d="m156 14.2c-2.1 0-3.47 1.19-4.38 2.33v11.3c1 1.05 2.46 2.01 4.29 2.01 3.15 0 4.52-2.28 4.52-8.08 0-4.15-.824-7.53-4.43-7.53zm.867 19.9c-2.28 0-4.2-.91-5.61-2.64-.23 1.19-.277 1.51-.641 2.14h-4.61c.41-1.05.59-2.05.59-5.16v-21.8c0-2.64-.18-4.29-.59-5.56l5.2-1.14c.273 1.64.367 2.78.367 4.61v5.38c0 1.5-.141 2.19-.141 2.19l.184.0469c1.6-1.55 3.29-2.24 5.48-2.24 5.52 0 8.98 4.52 8.98 11.7 0 7.39-3.83 12.4-9.21 12.4" fill="#105399"/></g><path d="m170 33.6v-22.7l5.06-.914v23.6zm-.734-29.8c0-1.87 1.46-3.38 3.33-3.38 1.78 0 3.29 1.46 3.29 3.38 0 1.82-1.5 3.33-3.38 3.33-1.83 0-3.24-1.5-3.24-3.33" fill="#105399"/><path d="m190 14.9c-.5-.184-.871-.32-1.41-.32-2.1 0-3.88 1.55-4.34 3.42v15.6h-5.02v-16.3c0-2.92-.32-4.79-.824-6.21l4.61-1.18c.551 1.05.867 2.37.867 3.65 1.82-2.51 3.65-3.7 5.89-3.7.727 0 1.18.0898 1.78.363l-1.55 4.66" fill="#105399"/><g clip-path="url(#b)"><path d="m206 16c-1.14-1.23-2.51-1.87-4.2-1.87-3.19 0-4.65 2.55-4.65 8.12 0 5.11 1 7.66 4.79 7.66 1.87 0 3.38-1.05 4.06-2.19zm1.09 17.6c-.227-.504-.27-.82-.41-1.78-1.55 1.55-3.38 2.28-5.66 2.28-5.89 0-9.44-4.61-9.44-11.8 0-7.25 4.01-12.2 9.58-12.2 1.96 0 3.55.641 4.97 2.1 0 0-.137-1.78-.137-3.79v-8.44l4.97.773v24.8c0 4.56.273 6.89.73 8.03h-4.61" fill="#105399"/></g><g clip-path="url(#a)"><path d="m214 11.1c-.0547-.0508-.152-.0781-.297-.0781h-.168v.598h.16c.0859 0 .148-.00391.191-.0156.0469-.0156.0898-.0312.113-.0625.0586-.0547.082-.133.082-.223 0-.0977-.0234-.172-.082-.219zm-.0195 1.26c-.0664-.113-.121-.207-.172-.281-.0469-.0664-.102-.133-.152-.18-.0156-.0195-.0391-.0352-.0508-.043-.0156-.00781-.0391-.0117-.0703-.0117v.812h-.305v-1.88h.574c.105 0 .195.0156.273.0469.0742.0273.141.0625.188.113.0508.0469.0859.105.113.172.0234.0625.0312.133.0312.203 0 .145-.043.273-.121.371-.082.0977-.195.145-.344.145.0156.00781.0391.0273.0625.0547.0234.0273.0469.0508.0703.0859.0273.0391.0508.0781.0742.113.0352.043.0547.0859.082.121l.281.457h-.371zm1.02-1.2c-.0742-.172-.176-.316-.293-.445-.113-.125-.258-.227-.426-.301-.164-.0664-.336-.105-.516-.105-.191 0-.367.0391-.523.105-.164.0742-.305.176-.43.301-.121.129-.211.273-.285.445-.0703.172-.102.352-.102.555 0 .195.0312.375.102.547.0742.172.164.32.285.449.125.125.266.23.43.305.156.0703.332.109.523.109.18 0 .352-.0391.516-.109.168-.0742.312-.18.426-.305.117-.129.219-.277.293-.449.0625-.172.102-.352.102-.547 0-.203-.0391-.383-.102-.555zm.297 1.21c-.0898.199-.211.383-.359.535-.152.148-.328.266-.531.355-.203.082-.418.125-.641.125-.23 0-.449-.043-.648-.125-.203-.0898-.379-.207-.527-.355-.152-.152-.273-.336-.355-.535-.0938-.203-.137-.43-.137-.66 0-.242.043-.457.137-.664.082-.207.203-.383.355-.535.148-.148.324-.27.527-.355.199-.0859.418-.129.648-.129.223 0 .438.043.641.129.203.0859.379.207.531.355.148.152.27.328.359.535s.137.422.137.664c0 .23-.0469.457-.137.66" fill="#105399"/></g></svg>
