<?xml version="1.0" encoding="UTF-8" standalone="no"?>
<svg
   xmlns:dc="http://purl.org/dc/elements/1.1/"
   xmlns:cc="http://creativecommons.org/ns#"
   xmlns:rdf="http://www.w3.org/1999/02/22-rdf-syntax-ns#"
   xmlns:svg="http://www.w3.org/2000/svg"
   xmlns="http://www.w3.org/2000/svg"
   xmlns:sodipodi="http://sodipodi.sourceforge.net/DTD/sodipodi-0.dtd"
   xmlns:inkscape="http://www.inkscape.org/namespaces/inkscape"
   width="109.343"
   height="116.21"
   viewBox="0 0 109.34301 116.21"
   version="1.1"
   id="svg22"
   sodipodi:docname="transvision.svg"
   inkscape:version="0.92+devel unknown">
  <metadata
     id="metadata28">
    <rdf:RDF>
      <cc:Work
         rdf:about="">
        <dc:format>image/svg+xml</dc:format>
        <dc:type
           rdf:resource="http://purl.org/dc/dcmitype/StillImage" />
      </cc:Work>
    </rdf:RDF>
  </metadata>
  <defs
     id="defs26" />
  <sodipodi:namedview
     pagecolor="#ffffff"
     bordercolor="#666666"
     inkscape:document-rotation="0"
     borderopacity="1"
     objecttolerance="10"
     gridtolerance="10"
     guidetolerance="10"
     inkscape:pageopacity="0"
     inkscape:pageshadow="2"
     inkscape:window-width="1920"
     inkscape:window-height="1016"
     id="namedview24"
     showgrid="false"
     inkscape:zoom="2.8749664"
     inkscape:cx="233.66076"
     inkscape:cy="-13.1293"
     inkscape:window-x="0"
     inkscape:window-y="0"
     inkscape:window-maximized="1"
     inkscape:current-layer="svg22" />
  <g
     fill="#1C75BC"
     id="g8">
    <path
       d="M 45.48,19.476 H 58.864 V 0 H 0 V 91.734 H 45.48 Z M 30.43,77.712 H 17.644 v 3.48 l -8.07,-7.538 8.07,-7.537 v 3.48 h 12.788 v 8.115 z m 3.07,-9.89 V 64.344 H 20.714 V 56.228 H 33.502 V 52.75 l 8.07,7.537 -8.07,7.536 z M 44.463,17.085 h -6.15 c -1.557,4.52 -3.836,8.546 -6.785,11.992 l 4.91,4.73 -2.378,6.153 -6.532,-6.532 -9.97,9.875 -4.21,-4.21 10.197,-10.013 c -2.252,-2.61 -4.098,-5.49 -5.496,-8.576 l -0.64,-1.413 h 6.162 l 0.28,0.536 c 1.07,2.04 2.307,3.903 3.683,5.555 2.072,-2.467 3.71,-5.182 4.89,-8.096 H 10.603 V 11.079 H 24.578 V 7.164 h 5.914 v 3.914 h 13.974 v 6.007 z m 25.69,78.807 c 2.924,1.866 6.3,2.85 9.76,2.85 3.46,0 6.836,-0.987 9.758,-2.85 2.327,-1.482 4.3,-3.47 5.778,-5.81 -1.48,-2.337 -3.45,-4.324 -5.777,-5.808 -0.152,-0.096 -0.305,-0.19 -0.46,-0.282 0.387,1.056 0.597,2.197 0.597,3.387 0,5.464 -4.43,9.895 -9.897,9.895 -5.466,0 -9.896,-4.43 -9.896,-9.896 0,-1.19 0.21,-2.332 0.596,-3.388 -0.153,0.092 -0.307,0.186 -0.458,0.282 -2.326,1.482 -4.298,3.47 -5.777,5.81 1.48,2.337 3.452,4.323 5.778,5.808 z"
       id="path2"
       inkscape:connector-curvature="0" />
    <path
       d="m 79.91,86.37 c 0,2.05 -1.66,3.712 -3.71,3.712 -2.05,0 -3.712,-1.66 -3.712,-3.71 0,-2.05 1.66,-3.712 3.71,-3.712 2.05,0 3.712,1.66 3.712,3.71 z"
       id="path4"
       inkscape:connector-curvature="0" />
    <path
       d="M 109.343,24.476 V 116.21 H 50.48 V 24.476 Z M 79.91,77.712 c -8.632,0 -16.116,5.027 -19.793,12.37 3.677,7.345 11.16,12.372 19.793,12.372 8.632,0 16.116,-5.028 19.793,-12.37 C 96.026,82.739 88.543,77.712 79.91,77.712 Z M 91.93,37.37 c -3.883,0 -6.67,2.025 -8.038,5.305 -1.203,-3.61 -4.49,-5.306 -8.038,-5.306 -3.442,0 -6.013,1.586 -7.49,4.208 V 37.861 H 57.76 v 5.358 h 3.55 v 13.952 h -3.282 v 5.358 h 15.04 v -5.358 h -4.692 v -8.594 c 0,-3.445 1.368,-5.85 4.758,-5.85 2.79,0 4.21,1.64 4.21,5.905 V 62.53 h 10.323 v -5.358 h -3.265 v -8.594 c 0,-3.445 1.368,-5.85 4.758,-5.85 2.787,0 4.21,1.64 4.21,5.905 v 13.89 h 10.322 l -0.003,-5.35 h -3.28 V 45.9 c 0,-5.85 -4.05,-8.53 -8.48,-8.53 z"
       id="path6"
       inkscape:connector-curvature="0" />
  </g>
</svg>
